solid zigzag_wall
  facet normal -4.961389e-01 8.682431e-01 0.000000e+00
    outer loop
      vertex 0.000000e+00 -1.750000e+00 -7.500000e-01
      vertex 0.000000e+00 -1.750000e+00 7.500000e-01
      vertex 2.916667e-01 -1.583333e+00 7.500000e-01
    endloop
  endfacet
  facet normal -4.961389e-01 8.682431e-01 0.000000e+00
    outer loop
      vertex 0.000000e+00 -1.750000e+00 -7.500000e-01
      vertex 2.916667e-01 -1.583333e+00 7.500000e-01
      vertex 2.916667e-01 -1.583333e+00 -7.500000e-01
    endloop
  endfacet
  facet normal 4.961389e-01 -8.682431e-01 0.000000e+00
    outer loop
      vertex 0.000000e+00 -2.500000e-01 -7.500000e-01
      vertex 2.916667e-01 -8.333333e-02 7.500000e-01
      vertex 0.000000e+00 -2.500000e-01 7.500000e-01
    endloop
  endfacet
  facet normal 4.961389e-01 -8.682431e-01 0.000000e+00
    outer loop
      vertex 0.000000e+00 -2.500000e-01 -7.500000e-01
      vertex 2.916667e-01 -8.333333e-02 -7.500000e-01
      vertex 2.916667e-01 -8.333333e-02 7.500000e-01
    endloop
  endfacet
  facet normal 0.000000e+00 0.000000e+00 1.000000e+00
    outer loop
      vertex 0.000000e+00 -1.750000e+00 -7.500000e-01
      vertex 2.916667e-01 -8.333333e-02 -7.500000e-01
      vertex 0.000000e+00 -2.500000e-01 -7.500000e-01
    endloop
  endfacet
  facet normal 0.000000e+00 0.000000e+00 1.000000e+00
    outer loop
      vertex 0.000000e+00 -1.750000e+00 -7.500000e-01
      vertex 2.916667e-01 -1.583333e+00 -7.500000e-01
      vertex 2.916667e-01 -8.333333e-02 -7.500000e-01
    endloop
  endfacet
  facet normal 0.000000e+00 0.000000e+00 -1.000000e+00
    outer loop
      vertex 0.000000e+00 -1.750000e+00 7.500000e-01
      vertex 0.000000e+00 -2.500000e-01 7.500000e-01
      vertex 2.916667e-01 -8.333333e-02 7.500000e-01
    endloop
  endfacet
  facet normal 0.000000e+00 0.000000e+00 -1.000000e+00
    outer loop
      vertex 0.000000e+00 -1.750000e+00 7.500000e-01
      vertex 2.916667e-01 -8.333333e-02 7.500000e-01
      vertex 2.916667e-01 -1.583333e+00 7.500000e-01
    endloop
  endfacet
  facet normal -4.961389e-01 8.682431e-01 0.000000e+00
    outer loop
      vertex 2.916667e-01 -1.583333e+00 -7.500000e-01
      vertex 2.916667e-01 -1.583333e+00 7.500000e-01
      vertex 5.833333e-01 -1.416667e+00 7.500000e-01
    endloop
  endfacet
  facet normal -4.961389e-01 8.682431e-01 0.000000e+00
    outer loop
      vertex 2.916667e-01 -1.583333e+00 -7.500000e-01
      vertex 5.833333e-01 -1.416667e+00 7.500000e-01
      vertex 5.833333e-01 -1.416667e+00 -7.500000e-01
    endloop
  endfacet
  facet normal 4.961389e-01 -8.682431e-01 0.000000e+00
    outer loop
      vertex 2.916667e-01 -8.333333e-02 -7.500000e-01
      vertex 5.833333e-01 8.333333e-02 7.500000e-01
      vertex 2.916667e-01 -8.333333e-02 7.500000e-01
    endloop
  endfacet
  facet normal 4.961389e-01 -8.682431e-01 0.000000e+00
    outer loop
      vertex 2.916667e-01 -8.333333e-02 -7.500000e-01
      vertex 5.833333e-01 8.333333e-02 -7.500000e-01
      vertex 5.833333e-01 8.333333e-02 7.500000e-01
    endloop
  endfacet
  facet normal 0.000000e+00 0.000000e+00 1.000000e+00
    outer loop
      vertex 2.916667e-01 -1.583333e+00 -7.500000e-01
      vertex 5.833333e-01 8.333333e-02 -7.500000e-01
      vertex 2.916667e-01 -8.333333e-02 -7.500000e-01
    endloop
  endfacet
  facet normal 0.000000e+00 0.000000e+00 1.000000e+00
    outer loop
      vertex 2.916667e-01 -1.583333e+00 -7.500000e-01
      vertex 5.833333e-01 -1.416667e+00 -7.500000e-01
      vertex 5.833333e-01 8.333333e-02 -7.500000e-01
    endloop
  endfacet
  facet normal 0.000000e+00 0.000000e+00 -1.000000e+00
    outer loop
      vertex 2.916667e-01 -1.583333e+00 7.500000e-01
      vertex 2.916667e-01 -8.333333e-02 7.500000e-01
      vertex 5.833333e-01 8.333333e-02 7.500000e-01
    endloop
  endfacet
  facet normal 0.000000e+00 0.000000e+00 -1.000000e+00
    outer loop
      vertex 2.916667e-01 -1.583333e+00 7.500000e-01
      vertex 5.833333e-01 8.333333e-02 7.500000e-01
      vertex 5.833333e-01 -1.416667e+00 7.500000e-01
    endloop
  endfacet
  facet normal -4.961389e-01 8.682431e-01 0.000000e+00
    outer loop
      vertex 5.833333e-01 -1.416667e+00 -7.500000e-01
      vertex 5.833333e-01 -1.416667e+00 7.500000e-01
      vertex 8.750000e-01 -1.250000e+00 7.500000e-01
    endloop
  endfacet
  facet normal -4.961389e-01 8.682431e-01 0.000000e+00
    outer loop
      vertex 5.833333e-01 -1.416667e+00 -7.500000e-01
      vertex 8.750000e-01 -1.250000e+00 7.500000e-01
      vertex 8.750000e-01 -1.250000e+00 -7.500000e-01
    endloop
  endfacet
  facet normal 4.961389e-01 -8.682431e-01 0.000000e+00
    outer loop
      vertex 5.833333e-01 8.333333e-02 -7.500000e-01
      vertex 8.750000e-01 2.500000e-01 7.500000e-01
      vertex 5.833333e-01 8.333333e-02 7.500000e-01
    endloop
  endfacet
  facet normal 4.961389e-01 -8.682431e-01 0.000000e+00
    outer loop
      vertex 5.833333e-01 8.333333e-02 -7.500000e-01
      vertex 8.750000e-01 2.500000e-01 -7.500000e-01
      vertex 8.750000e-01 2.500000e-01 7.500000e-01
    endloop
  endfacet
  facet normal 0.000000e+00 0.000000e+00 1.000000e+00
    outer loop
      vertex 5.833333e-01 -1.416667e+00 -7.500000e-01
      vertex 8.750000e-01 2.500000e-01 -7.500000e-01
      vertex 5.833333e-01 8.333333e-02 -7.500000e-01
    endloop
  endfacet
  facet normal 0.000000e+00 0.000000e+00 1.000000e+00
    outer loop
      vertex 5.833333e-01 -1.416667e+00 -7.500000e-01
      vertex 8.750000e-01 -1.250000e+00 -7.500000e-01
      vertex 8.750000e-01 2.500000e-01 -7.500000e-01
    endloop
  endfacet
  facet normal 0.000000e+00 0.000000e+00 -1.000000e+00
    outer loop
      vertex 5.833333e-01 -1.416667e+00 7.500000e-01
      vertex 5.833333e-01 8.333333e-02 7.500000e-01
      vertex 8.750000e-01 2.500000e-01 7.500000e-01
    endloop
  endfacet
  facet normal 0.000000e+00 0.000000e+00 -1.000000e+00
    outer loop
      vertex 5.833333e-01 -1.416667e+00 7.500000e-01
      vertex 8.750000e-01 2.500000e-01 7.500000e-01
      vertex 8.750000e-01 -1.250000e+00 7.500000e-01
    endloop
  endfacet
  facet normal -4.961389e-01 8.682431e-01 0.000000e+00
    outer loop
      vertex 8.750000e-01 -1.250000e+00 -7.500000e-01
      vertex 8.750000e-01 -1.250000e+00 7.500000e-01
      vertex 1.166667e+00 -1.083333e+00 7.500000e-01
    endloop
  endfacet
  facet normal -4.961389e-01 8.682431e-01 0.000000e+00
    outer loop
      vertex 8.750000e-01 -1.250000e+00 -7.500000e-01
      vertex 1.166667e+00 -1.083333e+00 7.500000e-01
      vertex 1.166667e+00 -1.083333e+00 -7.500000e-01
    endloop
  endfacet
  facet normal 4.961389e-01 -8.682431e-01 0.000000e+00
    outer loop
      vertex 8.750000e-01 2.500000e-01 -7.500000e-01
      vertex 1.166667e+00 4.166667e-01 7.500000e-01
      vertex 8.750000e-01 2.500000e-01 7.500000e-01
    endloop
  endfacet
  facet normal 4.961389e-01 -8.682431e-01 0.000000e+00
    outer loop
      vertex 8.750000e-01 2.500000e-01 -7.500000e-01
      vertex 1.166667e+00 4.166667e-01 -7.500000e-01
      vertex 1.166667e+00 4.166667e-01 7.500000e-01
    endloop
  endfacet
  facet normal 0.000000e+00 0.000000e+00 1.000000e+00
    outer loop
      vertex 8.750000e-01 -1.250000e+00 -7.500000e-01
      vertex 1.166667e+00 4.166667e-01 -7.500000e-01
      vertex 8.750000e-01 2.500000e-01 -7.500000e-01
    endloop
  endfacet
  facet normal 0.000000e+00 0.000000e+00 1.000000e+00
    outer loop
      vertex 8.750000e-01 -1.250000e+00 -7.500000e-01
      vertex 1.166667e+00 -1.083333e+00 -7.500000e-01
      vertex 1.166667e+00 4.166667e-01 -7.500000e-01
    endloop
  endfacet
  facet normal 0.000000e+00 0.000000e+00 -1.000000e+00
    outer loop
      vertex 8.750000e-01 -1.250000e+00 7.500000e-01
      vertex 8.750000e-01 2.500000e-01 7.500000e-01
      vertex 1.166667e+00 4.166667e-01 7.500000e-01
    endloop
  endfacet
  facet normal 0.000000e+00 0.000000e+00 -1.000000e+00
    outer loop
      vertex 8.750000e-01 -1.250000e+00 7.500000e-01
      vertex 1.166667e+00 4.166667e-01 7.500000e-01
      vertex 1.166667e+00 -1.083333e+00 7.500000e-01
    endloop
  endfacet
  facet normal -4.961389e-01 8.682431e-01 0.000000e+00
    outer loop
      vertex 1.166667e+00 -1.083333e+00 -7.500000e-01
      vertex 1.166667e+00 -1.083333e+00 7.500000e-01
      vertex 1.458333e+00 -9.166667e-01 7.500000e-01
    endloop
  endfacet
  facet normal -4.961389e-01 8.682431e-01 0.000000e+00
    outer loop
      vertex 1.166667e+00 -1.083333e+00 -7.500000e-01
      vertex 1.458333e+00 -9.166667e-01 7.500000e-01
      vertex 1.458333e+00 -9.166667e-01 -7.500000e-01
    endloop
  endfacet
  facet normal 4.961389e-01 -8.682431e-01 0.000000e+00
    outer loop
      vertex 1.166667e+00 4.166667e-01 -7.500000e-01
      vertex 1.458333e+00 5.833333e-01 7.500000e-01
      vertex 1.166667e+00 4.166667e-01 7.500000e-01
    endloop
  endfacet
  facet normal 4.961389e-01 -8.682431e-01 0.000000e+00
    outer loop
      vertex 1.166667e+00 4.166667e-01 -7.500000e-01
      vertex 1.458333e+00 5.833333e-01 -7.500000e-01
      vertex 1.458333e+00 5.833333e-01 7.500000e-01
    endloop
  endfacet
  facet normal 0.000000e+00 0.000000e+00 1.000000e+00
    outer loop
      vertex 1.166667e+00 -1.083333e+00 -7.500000e-01
      vertex 1.458333e+00 5.833333e-01 -7.500000e-01
      vertex 1.166667e+00 4.166667e-01 -7.500000e-01
    endloop
  endfacet
  facet normal 0.000000e+00 0.000000e+00 1.000000e+00
    outer loop
      vertex 1.166667e+00 -1.083333e+00 -7.500000e-01
      vertex 1.458333e+00 -9.166667e-01 -7.500000e-01
      vertex 1.458333e+00 5.833333e-01 -7.500000e-01
    endloop
  endfacet
  facet normal 0.000000e+00 0.000000e+00 -1.000000e+00
    outer loop
      vertex 1.166667e+00 -1.083333e+00 7.500000e-01
      vertex 1.166667e+00 4.166667e-01 7.500000e-01
      vertex 1.458333e+00 5.833333e-01 7.500000e-01
    endloop
  endfacet
  facet normal 0.000000e+00 0.000000e+00 -1.000000e+00
    outer loop
      vertex 1.166667e+00 -1.083333e+00 7.500000e-01
      vertex 1.458333e+00 5.833333e-01 7.500000e-01
      vertex 1.458333e+00 -9.166667e-01 7.500000e-01
    endloop
  endfacet
  facet normal -4.961389e-01 8.682431e-01 0.000000e+00
    outer loop
      vertex 1.458333e+00 -9.166667e-01 -7.500000e-01
      vertex 1.458333e+00 -9.166667e-01 7.500000e-01
      vertex 1.750000e+00 -7.500000e-01 7.500000e-01
    endloop
  endfacet
  facet normal -4.961389e-01 8.682431e-01 0.000000e+00
    outer loop
      vertex 1.458333e+00 -9.166667e-01 -7.500000e-01
      vertex 1.750000e+00 -7.500000e-01 7.500000e-01
      vertex 1.750000e+00 -7.500000e-01 -7.500000e-01
    endloop
  endfacet
  facet normal 4.961389e-01 -8.682431e-01 0.000000e+00
    outer loop
      vertex 1.458333e+00 5.833333e-01 -7.500000e-01
      vertex 1.750000e+00 7.500000e-01 7.500000e-01
      vertex 1.458333e+00 5.833333e-01 7.500000e-01
    endloop
  endfacet
  facet normal 4.961389e-01 -8.682431e-01 0.000000e+00
    outer loop
      vertex 1.458333e+00 5.833333e-01 -7.500000e-01
      vertex 1.750000e+00 7.500000e-01 -7.500000e-01
      vertex 1.750000e+00 7.500000e-01 7.500000e-01
    endloop
  endfacet
  facet normal 0.000000e+00 0.000000e+00 1.000000e+00
    outer loop
      vertex 1.458333e+00 -9.166667e-01 -7.500000e-01
      vertex 1.750000e+00 7.500000e-01 -7.500000e-01
      vertex 1.458333e+00 5.833333e-01 -7.500000e-01
    endloop
  endfacet
  facet normal 0.000000e+00 0.000000e+00 1.000000e+00
    outer loop
      vertex 1.458333e+00 -9.166667e-01 -7.500000e-01
      vertex 1.750000e+00 -7.500000e-01 -7.500000e-01
      vertex 1.750000e+00 7.500000e-01 -7.500000e-01
    endloop
  endfacet
  facet normal 0.000000e+00 0.000000e+00 -1.000000e+00
    outer loop
      vertex 1.458333e+00 -9.166667e-01 7.500000e-01
      vertex 1.458333e+00 5.833333e-01 7.500000e-01
      vertex 1.750000e+00 7.500000e-01 7.500000e-01
    endloop
  endfacet
  facet normal 0.000000e+00 0.000000e+00 -1.000000e+00
    outer loop
      vertex 1.458333e+00 -9.166667e-01 7.500000e-01
      vertex 1.750000e+00 7.500000e-01 7.500000e-01
      vertex 1.750000e+00 -7.500000e-01 7.500000e-01
    endloop
  endfacet
  facet normal -4.961389e-01 8.682431e-01 0.000000e+00
    outer loop
      vertex 1.750000e+00 -7.500000e-01 -7.500000e-01
      vertex 1.750000e+00 -7.500000e-01 7.500000e-01
      vertex 2.041667e+00 -5.833333e-01 7.500000e-01
    endloop
  endfacet
  facet normal -4.961389e-01 8.682431e-01 0.000000e+00
    outer loop
      vertex 1.750000e+00 -7.500000e-01 -7.500000e-01
      vertex 2.041667e+00 -5.833333e-01 7.500000e-01
      vertex 2.041667e+00 -5.833333e-01 -7.500000e-01
    endloop
  endfacet
  facet normal 4.961389e-01 -8.682431e-01 0.000000e+00
    outer loop
      vertex 1.750000e+00 7.500000e-01 -7.500000e-01
      vertex 2.041667e+00 9.166667e-01 7.500000e-01
      vertex 1.750000e+00 7.500000e-01 7.500000e-01
    endloop
  endfacet
  facet normal 4.961389e-01 -8.682431e-01 0.000000e+00
    outer loop
      vertex 1.750000e+00 7.500000e-01 -7.500000e-01
      vertex 2.041667e+00 9.166667e-01 -7.500000e-01
      vertex 2.041667e+00 9.166667e-01 7.500000e-01
    endloop
  endfacet
  facet normal 0.000000e+00 0.000000e+00 1.000000e+00
    outer loop
      vertex 1.750000e+00 -7.500000e-01 -7.500000e-01
      vertex 2.041667e+00 9.166667e-01 -7.500000e-01
      vertex 1.750000e+00 7.500000e-01 -7.500000e-01
    endloop
  endfacet
  facet normal 0.000000e+00 0.000000e+00 1.000000e+00
    outer loop
      vertex 1.750000e+00 -7.500000e-01 -7.500000e-01
      vertex 2.041667e+00 -5.833333e-01 -7.500000e-01
      vertex 2.041667e+00 9.166667e-01 -7.500000e-01
    endloop
  endfacet
  facet normal 0.000000e+00 0.000000e+00 -1.000000e+00
    outer loop
      vertex 1.750000e+00 -7.500000e-01 7.500000e-01
      vertex 1.750000e+00 7.500000e-01 7.500000e-01
      vertex 2.041667e+00 9.166667e-01 7.500000e-01
    endloop
  endfacet
  facet normal 0.000000e+00 0.000000e+00 -1.000000e+00
    outer loop
      vertex 1.750000e+00 -7.500000e-01 7.500000e-01
      vertex 2.041667e+00 9.166667e-01 7.500000e-01
      vertex 2.041667e+00 -5.833333e-01 7.500000e-01
    endloop
  endfacet
  facet normal -4.961389e-01 8.682431e-01 0.000000e+00
    outer loop
      vertex 2.041667e+00 -5.833333e-01 -7.500000e-01
      vertex 2.041667e+00 -5.833333e-01 7.500000e-01
      vertex 2.333333e+00 -4.166667e-01 7.500000e-01
    endloop
  endfacet
  facet normal -4.961389e-01 8.682431e-01 0.000000e+00
    outer loop
      vertex 2.041667e+00 -5.833333e-01 -7.500000e-01
      vertex 2.333333e+00 -4.166667e-01 7.500000e-01
      vertex 2.333333e+00 -4.166667e-01 -7.500000e-01
    endloop
  endfacet
  facet normal 4.961389e-01 -8.682431e-01 0.000000e+00
    outer loop
      vertex 2.041667e+00 9.166667e-01 -7.500000e-01
      vertex 2.333333e+00 1.083333e+00 7.500000e-01
      vertex 2.041667e+00 9.166667e-01 7.500000e-01
    endloop
  endfacet
  facet normal 4.961389e-01 -8.682431e-01 0.000000e+00
    outer loop
      vertex 2.041667e+00 9.166667e-01 -7.500000e-01
      vertex 2.333333e+00 1.083333e+00 -7.500000e-01
      vertex 2.333333e+00 1.083333e+00 7.500000e-01
    endloop
  endfacet
  facet normal 0.000000e+00 0.000000e+00 1.000000e+00
    outer loop
      vertex 2.041667e+00 -5.833333e-01 -7.500000e-01
      vertex 2.333333e+00 1.083333e+00 -7.500000e-01
      vertex 2.041667e+00 9.166667e-01 -7.500000e-01
    endloop
  endfacet
  facet normal 0.000000e+00 0.000000e+00 1.000000e+00
    outer loop
      vertex 2.041667e+00 -5.833333e-01 -7.500000e-01
      vertex 2.333333e+00 -4.166667e-01 -7.500000e-01
      vertex 2.333333e+00 1.083333e+00 -7.500000e-01
    endloop
  endfacet
  facet normal 0.000000e+00 0.000000e+00 -1.000000e+00
    outer loop
      vertex 2.041667e+00 -5.833333e-01 7.500000e-01
      vertex 2.041667e+00 9.166667e-01 7.500000e-01
      vertex 2.333333e+00 1.083333e+00 7.500000e-01
    endloop
  endfacet
  facet normal 0.000000e+00 0.000000e+00 -1.000000e+00
    outer loop
      vertex 2.041667e+00 -5.833333e-01 7.500000e-01
      vertex 2.333333e+00 1.083333e+00 7.500000e-01
      vertex 2.333333e+00 -4.166667e-01 7.500000e-01
    endloop
  endfacet
  facet normal -4.961389e-01 8.682431e-01 0.000000e+00
    outer loop
      vertex 2.333333e+00 -4.166667e-01 -7.500000e-01
      vertex 2.333333e+00 -4.166667e-01 7.500000e-01
      vertex 2.625000e+00 -2.500000e-01 7.500000e-01
    endloop
  endfacet
  facet normal -4.961389e-01 8.682431e-01 0.000000e+00
    outer loop
      vertex 2.333333e+00 -4.166667e-01 -7.500000e-01
      vertex 2.625000e+00 -2.500000e-01 7.500000e-01
      vertex 2.625000e+00 -2.500000e-01 -7.500000e-01
    endloop
  endfacet
  facet normal 4.961389e-01 -8.682431e-01 0.000000e+00
    outer loop
      vertex 2.333333e+00 1.083333e+00 -7.500000e-01
      vertex 2.625000e+00 1.250000e+00 7.500000e-01
      vertex 2.333333e+00 1.083333e+00 7.500000e-01
    endloop
  endfacet
  facet normal 4.961389e-01 -8.682431e-01 0.000000e+00
    outer loop
      vertex 2.333333e+00 1.083333e+00 -7.500000e-01
      vertex 2.625000e+00 1.250000e+00 -7.500000e-01
      vertex 2.625000e+00 1.250000e+00 7.500000e-01
    endloop
  endfacet
  facet normal 0.000000e+00 0.000000e+00 1.000000e+00
    outer loop
      vertex 2.333333e+00 -4.166667e-01 -7.500000e-01
      vertex 2.625000e+00 1.250000e+00 -7.500000e-01
      vertex 2.333333e+00 1.083333e+00 -7.500000e-01
    endloop
  endfacet
  facet normal 0.000000e+00 0.000000e+00 1.000000e+00
    outer loop
      vertex 2.333333e+00 -4.166667e-01 -7.500000e-01
      vertex 2.625000e+00 -2.500000e-01 -7.500000e-01
      vertex 2.625000e+00 1.250000e+00 -7.500000e-01
    endloop
  endfacet
  facet normal 0.000000e+00 0.000000e+00 -1.000000e+00
    outer loop
      vertex 2.333333e+00 -4.166667e-01 7.500000e-01
      vertex 2.333333e+00 1.083333e+00 7.500000e-01
      vertex 2.625000e+00 1.250000e+00 7.500000e-01
    endloop
  endfacet
  facet normal 0.000000e+00 0.000000e+00 -1.000000e+00
    outer loop
      vertex 2.333333e+00 -4.166667e-01 7.500000e-01
      vertex 2.625000e+00 1.250000e+00 7.500000e-01
      vertex 2.625000e+00 -2.500000e-01 7.500000e-01
    endloop
  endfacet
  facet normal -4.961389e-01 8.682431e-01 0.000000e+00
    outer loop
      vertex 2.625000e+00 -2.500000e-01 -7.500000e-01
      vertex 2.625000e+00 -2.500000e-01 7.500000e-01
      vertex 2.916667e+00 -8.333333e-02 7.500000e-01
    endloop
  endfacet
  facet normal -4.961389e-01 8.682431e-01 0.000000e+00
    outer loop
      vertex 2.625000e+00 -2.500000e-01 -7.500000e-01
      vertex 2.916667e+00 -8.333333e-02 7.500000e-01
      vertex 2.916667e+00 -8.333333e-02 -7.500000e-01
    endloop
  endfacet
  facet normal 4.961389e-01 -8.682431e-01 0.000000e+00
    outer loop
      vertex 2.625000e+00 1.250000e+00 -7.500000e-01
      vertex 2.916667e+00 1.416667e+00 7.500000e-01
      vertex 2.625000e+00 1.250000e+00 7.500000e-01
    endloop
  endfacet
  facet normal 4.961389e-01 -8.682431e-01 0.000000e+00
    outer loop
      vertex 2.625000e+00 1.250000e+00 -7.500000e-01
      vertex 2.916667e+00 1.416667e+00 -7.500000e-01
      vertex 2.916667e+00 1.416667e+00 7.500000e-01
    endloop
  endfacet
  facet normal 0.000000e+00 0.000000e+00 1.000000e+00
    outer loop
      vertex 2.625000e+00 -2.500000e-01 -7.500000e-01
      vertex 2.916667e+00 1.416667e+00 -7.500000e-01
      vertex 2.625000e+00 1.250000e+00 -7.500000e-01
    endloop
  endfacet
  facet normal 0.000000e+00 0.000000e+00 1.000000e+00
    outer loop
      vertex 2.625000e+00 -2.500000e-01 -7.500000e-01
      vertex 2.916667e+00 -8.333333e-02 -7.500000e-01
      vertex 2.916667e+00 1.416667e+00 -7.500000e-01
    endloop
  endfacet
  facet normal 0.000000e+00 0.000000e+00 -1.000000e+00
    outer loop
      vertex 2.625000e+00 -2.500000e-01 7.500000e-01
      vertex 2.625000e+00 1.250000e+00 7.500000e-01
      vertex 2.916667e+00 1.416667e+00 7.500000e-01
    endloop
  endfacet
  facet normal 0.000000e+00 0.000000e+00 -1.000000e+00
    outer loop
      vertex 2.625000e+00 -2.500000e-01 7.500000e-01
      vertex 2.916667e+00 1.416667e+00 7.500000e-01
      vertex 2.916667e+00 -8.333333e-02 7.500000e-01
    endloop
  endfacet
  facet normal -4.961389e-01 8.682431e-01 0.000000e+00
    outer loop
      vertex 2.916667e+00 -8.333333e-02 -7.500000e-01
      vertex 2.916667e+00 -8.333333e-02 7.500000e-01
      vertex 3.208333e+00 8.333333e-02 7.500000e-01
    endloop
  endfacet
  facet normal -4.961389e-01 8.682431e-01 0.000000e+00
    outer loop
      vertex 2.916667e+00 -8.333333e-02 -7.500000e-01
      vertex 3.208333e+00 8.333333e-02 7.500000e-01
      vertex 3.208333e+00 8.333333e-02 -7.500000e-01
    endloop
  endfacet
  facet normal 4.961389e-01 -8.682431e-01 0.000000e+00
    outer loop
      vertex 2.916667e+00 1.416667e+00 -7.500000e-01
      vertex 3.208333e+00 1.583333e+00 7.500000e-01
      vertex 2.916667e+00 1.416667e+00 7.500000e-01
    endloop
  endfacet
  facet normal 4.961389e-01 -8.682431e-01 0.000000e+00
    outer loop
      vertex 2.916667e+00 1.416667e+00 -7.500000e-01
      vertex 3.208333e+00 1.583333e+00 -7.500000e-01
      vertex 3.208333e+00 1.583333e+00 7.500000e-01
    endloop
  endfacet
  facet normal 0.000000e+00 0.000000e+00 1.000000e+00
    outer loop
      vertex 2.916667e+00 -8.333333e-02 -7.500000e-01
      vertex 3.208333e+00 1.583333e+00 -7.500000e-01
      vertex 2.916667e+00 1.416667e+00 -7.500000e-01
    endloop
  endfacet
  facet normal 0.000000e+00 0.000000e+00 1.000000e+00
    outer loop
      vertex 2.916667e+00 -8.333333e-02 -7.500000e-01
      vertex 3.208333e+00 8.333333e-02 -7.500000e-01
      vertex 3.208333e+00 1.583333e+00 -7.500000e-01
    endloop
  endfacet
  facet normal 0.000000e+00 0.000000e+00 -1.000000e+00
    outer loop
      vertex 2.916667e+00 -8.333333e-02 7.500000e-01
      vertex 2.916667e+00 1.416667e+00 7.500000e-01
      vertex 3.208333e+00 1.583333e+00 7.500000e-01
    endloop
  endfacet
  facet normal 0.000000e+00 0.000000e+00 -1.000000e+00
    outer loop
      vertex 2.916667e+00 -8.333333e-02 7.500000e-01
      vertex 3.208333e+00 1.583333e+00 7.500000e-01
      vertex 3.208333e+00 8.333333e-02 7.500000e-01
    endloop
  endfacet
  facet normal -4.961389e-01 8.682431e-01 0.000000e+00
    outer loop
      vertex 3.208333e+00 8.333333e-02 -7.500000e-01
      vertex 3.208333e+00 8.333333e-02 7.500000e-01
      vertex 3.500000e+00 2.500000e-01 7.500000e-01
    endloop
  endfacet
  facet normal -4.961389e-01 8.682431e-01 0.000000e+00
    outer loop
      vertex 3.208333e+00 8.333333e-02 -7.500000e-01
      vertex 3.500000e+00 2.500000e-01 7.500000e-01
      vertex 3.500000e+00 2.500000e-01 -7.500000e-01
    endloop
  endfacet
  facet normal 4.961389e-01 -8.682431e-01 0.000000e+00
    outer loop
      vertex 3.208333e+00 1.583333e+00 -7.500000e-01
      vertex 3.500000e+00 1.750000e+00 7.500000e-01
      vertex 3.208333e+00 1.583333e+00 7.500000e-01
    endloop
  endfacet
  facet normal 4.961389e-01 -8.682431e-01 0.000000e+00
    outer loop
      vertex 3.208333e+00 1.583333e+00 -7.500000e-01
      vertex 3.500000e+00 1.750000e+00 -7.500000e-01
      vertex 3.500000e+00 1.750000e+00 7.500000e-01
    endloop
  endfacet
  facet normal 0.000000e+00 0.000000e+00 1.000000e+00
    outer loop
      vertex 3.208333e+00 8.333333e-02 -7.500000e-01
      vertex 3.500000e+00 1.750000e+00 -7.500000e-01
      vertex 3.208333e+00 1.583333e+00 -7.500000e-01
    endloop
  endfacet
  facet normal 0.000000e+00 0.000000e+00 1.000000e+00
    outer loop
      vertex 3.208333e+00 8.333333e-02 -7.500000e-01
      vertex 3.500000e+00 2.500000e-01 -7.500000e-01
      vertex 3.500000e+00 1.750000e+00 -7.500000e-01
    endloop
  endfacet
  facet normal 0.000000e+00 0.000000e+00 -1.000000e+00
    outer loop
      vertex 3.208333e+00 8.333333e-02 7.500000e-01
      vertex 3.208333e+00 1.583333e+00 7.500000e-01
      vertex 3.500000e+00 1.750000e+00 7.500000e-01
    endloop
  endfacet
  facet normal 0.000000e+00 0.000000e+00 -1.000000e+00
    outer loop
      vertex 3.208333e+00 8.333333e-02 7.500000e-01
      vertex 3.500000e+00 1.750000e+00 7.500000e-01
      vertex 3.500000e+00 2.500000e-01 7.500000e-01
    endloop
  endfacet
  facet normal 4.961389e-01 8.682431e-01 -0.000000e+00
    outer loop
      vertex 3.500000e+00 2.500000e-01 -7.500000e-01
      vertex 3.500000e+00 2.500000e-01 7.500000e-01
      vertex 3.791667e+00 8.333333e-02 7.500000e-01
    endloop
  endfacet
  facet normal 4.961389e-01 8.682431e-01 0.000000e+00
    outer loop
      vertex 3.500000e+00 2.500000e-01 -7.500000e-01
      vertex 3.791667e+00 8.333333e-02 7.500000e-01
      vertex 3.791667e+00 8.333333e-02 -7.500000e-01
    endloop
  endfacet
  facet normal -4.961389e-01 -8.682431e-01 0.000000e+00
    outer loop
      vertex 3.500000e+00 1.750000e+00 -7.500000e-01
      vertex 3.791667e+00 1.583333e+00 7.500000e-01
      vertex 3.500000e+00 1.750000e+00 7.500000e-01
    endloop
  endfacet
  facet normal -4.961389e-01 -8.682431e-01 0.000000e+00
    outer loop
      vertex 3.500000e+00 1.750000e+00 -7.500000e-01
      vertex 3.791667e+00 1.583333e+00 -7.500000e-01
      vertex 3.791667e+00 1.583333e+00 7.500000e-01
    endloop
  endfacet
  facet normal 0.000000e+00 0.000000e+00 1.000000e+00
    outer loop
      vertex 3.500000e+00 2.500000e-01 -7.500000e-01
      vertex 3.791667e+00 1.583333e+00 -7.500000e-01
      vertex 3.500000e+00 1.750000e+00 -7.500000e-01
    endloop
  endfacet
  facet normal -0.000000e+00 0.000000e+00 1.000000e+00
    outer loop
      vertex 3.500000e+00 2.500000e-01 -7.500000e-01
      vertex 3.791667e+00 8.333333e-02 -7.500000e-01
      vertex 3.791667e+00 1.583333e+00 -7.500000e-01
    endloop
  endfacet
  facet normal 0.000000e+00 0.000000e+00 -1.000000e+00
    outer loop
      vertex 3.500000e+00 2.500000e-01 7.500000e-01
      vertex 3.500000e+00 1.750000e+00 7.500000e-01
      vertex 3.791667e+00 1.583333e+00 7.500000e-01
    endloop
  endfacet
  facet normal 0.000000e+00 0.000000e+00 -1.000000e+00
    outer loop
      vertex 3.500000e+00 2.500000e-01 7.500000e-01
      vertex 3.791667e+00 1.583333e+00 7.500000e-01
      vertex 3.791667e+00 8.333333e-02 7.500000e-01
    endloop
  endfacet
  facet normal 4.961389e-01 8.682431e-01 -0.000000e+00
    outer loop
      vertex 3.791667e+00 8.333333e-02 -7.500000e-01
      vertex 3.791667e+00 8.333333e-02 7.500000e-01
      vertex 4.083333e+00 -8.333333e-02 7.500000e-01
    endloop
  endfacet
  facet normal 4.961389e-01 8.682431e-01 0.000000e+00
    outer loop
      vertex 3.791667e+00 8.333333e-02 -7.500000e-01
      vertex 4.083333e+00 -8.333333e-02 7.500000e-01
      vertex 4.083333e+00 -8.333333e-02 -7.500000e-01
    endloop
  endfacet
  facet normal -4.961389e-01 -8.682431e-01 0.000000e+00
    outer loop
      vertex 3.791667e+00 1.583333e+00 -7.500000e-01
      vertex 4.083333e+00 1.416667e+00 7.500000e-01
      vertex 3.791667e+00 1.583333e+00 7.500000e-01
    endloop
  endfacet
  facet normal -4.961389e-01 -8.682431e-01 0.000000e+00
    outer loop
      vertex 3.791667e+00 1.583333e+00 -7.500000e-01
      vertex 4.083333e+00 1.416667e+00 -7.500000e-01
      vertex 4.083333e+00 1.416667e+00 7.500000e-01
    endloop
  endfacet
  facet normal 0.000000e+00 0.000000e+00 1.000000e+00
    outer loop
      vertex 3.791667e+00 8.333333e-02 -7.500000e-01
      vertex 4.083333e+00 1.416667e+00 -7.500000e-01
      vertex 3.791667e+00 1.583333e+00 -7.500000e-01
    endloop
  endfacet
  facet normal -0.000000e+00 0.000000e+00 1.000000e+00
    outer loop
      vertex 3.791667e+00 8.333333e-02 -7.500000e-01
      vertex 4.083333e+00 -8.333333e-02 -7.500000e-01
      vertex 4.083333e+00 1.416667e+00 -7.500000e-01
    endloop
  endfacet
  facet normal 0.000000e+00 0.000000e+00 -1.000000e+00
    outer loop
      vertex 3.791667e+00 8.333333e-02 7.500000e-01
      vertex 3.791667e+00 1.583333e+00 7.500000e-01
      vertex 4.083333e+00 1.416667e+00 7.500000e-01
    endloop
  endfacet
  facet normal 0.000000e+00 0.000000e+00 -1.000000e+00
    outer loop
      vertex 3.791667e+00 8.333333e-02 7.500000e-01
      vertex 4.083333e+00 1.416667e+00 7.500000e-01
      vertex 4.083333e+00 -8.333333e-02 7.500000e-01
    endloop
  endfacet
  facet normal 4.961389e-01 8.682431e-01 -0.000000e+00
    outer loop
      vertex 4.083333e+00 -8.333333e-02 -7.500000e-01
      vertex 4.083333e+00 -8.333333e-02 7.500000e-01
      vertex 4.375000e+00 -2.500000e-01 7.500000e-01
    endloop
  endfacet
  facet normal 4.961389e-01 8.682431e-01 0.000000e+00
    outer loop
      vertex 4.083333e+00 -8.333333e-02 -7.500000e-01
      vertex 4.375000e+00 -2.500000e-01 7.500000e-01
      vertex 4.375000e+00 -2.500000e-01 -7.500000e-01
    endloop
  endfacet
  facet normal -4.961389e-01 -8.682431e-01 0.000000e+00
    outer loop
      vertex 4.083333e+00 1.416667e+00 -7.500000e-01
      vertex 4.375000e+00 1.250000e+00 7.500000e-01
      vertex 4.083333e+00 1.416667e+00 7.500000e-01
    endloop
  endfacet
  facet normal -4.961389e-01 -8.682431e-01 0.000000e+00
    outer loop
      vertex 4.083333e+00 1.416667e+00 -7.500000e-01
      vertex 4.375000e+00 1.250000e+00 -7.500000e-01
      vertex 4.375000e+00 1.250000e+00 7.500000e-01
    endloop
  endfacet
  facet normal 0.000000e+00 0.000000e+00 1.000000e+00
    outer loop
      vertex 4.083333e+00 -8.333333e-02 -7.500000e-01
      vertex 4.375000e+00 1.250000e+00 -7.500000e-01
      vertex 4.083333e+00 1.416667e+00 -7.500000e-01
    endloop
  endfacet
  facet normal -0.000000e+00 0.000000e+00 1.000000e+00
    outer loop
      vertex 4.083333e+00 -8.333333e-02 -7.500000e-01
      vertex 4.375000e+00 -2.500000e-01 -7.500000e-01
      vertex 4.375000e+00 1.250000e+00 -7.500000e-01
    endloop
  endfacet
  facet normal 0.000000e+00 0.000000e+00 -1.000000e+00
    outer loop
      vertex 4.083333e+00 -8.333333e-02 7.500000e-01
      vertex 4.083333e+00 1.416667e+00 7.500000e-01
      vertex 4.375000e+00 1.250000e+00 7.500000e-01
    endloop
  endfacet
  facet normal 0.000000e+00 0.000000e+00 -1.000000e+00
    outer loop
      vertex 4.083333e+00 -8.333333e-02 7.500000e-01
      vertex 4.375000e+00 1.250000e+00 7.500000e-01
      vertex 4.375000e+00 -2.500000e-01 7.500000e-01
    endloop
  endfacet
  facet normal 4.961389e-01 8.682431e-01 -0.000000e+00
    outer loop
      vertex 4.375000e+00 -2.500000e-01 -7.500000e-01
      vertex 4.375000e+00 -2.500000e-01 7.500000e-01
      vertex 4.666667e+00 -4.166667e-01 7.500000e-01
    endloop
  endfacet
  facet normal 4.961389e-01 8.682431e-01 0.000000e+00
    outer loop
      vertex 4.375000e+00 -2.500000e-01 -7.500000e-01
      vertex 4.666667e+00 -4.166667e-01 7.500000e-01
      vertex 4.666667e+00 -4.166667e-01 -7.500000e-01
    endloop
  endfacet
  facet normal -4.961389e-01 -8.682431e-01 0.000000e+00
    outer loop
      vertex 4.375000e+00 1.250000e+00 -7.500000e-01
      vertex 4.666667e+00 1.083333e+00 7.500000e-01
      vertex 4.375000e+00 1.250000e+00 7.500000e-01
    endloop
  endfacet
  facet normal -4.961389e-01 -8.682431e-01 0.000000e+00
    outer loop
      vertex 4.375000e+00 1.250000e+00 -7.500000e-01
      vertex 4.666667e+00 1.083333e+00 -7.500000e-01
      vertex 4.666667e+00 1.083333e+00 7.500000e-01
    endloop
  endfacet
  facet normal 0.000000e+00 0.000000e+00 1.000000e+00
    outer loop
      vertex 4.375000e+00 -2.500000e-01 -7.500000e-01
      vertex 4.666667e+00 1.083333e+00 -7.500000e-01
      vertex 4.375000e+00 1.250000e+00 -7.500000e-01
    endloop
  endfacet
  facet normal -0.000000e+00 0.000000e+00 1.000000e+00
    outer loop
      vertex 4.375000e+00 -2.500000e-01 -7.500000e-01
      vertex 4.666667e+00 -4.166667e-01 -7.500000e-01
      vertex 4.666667e+00 1.083333e+00 -7.500000e-01
    endloop
  endfacet
  facet normal 0.000000e+00 0.000000e+00 -1.000000e+00
    outer loop
      vertex 4.375000e+00 -2.500000e-01 7.500000e-01
      vertex 4.375000e+00 1.250000e+00 7.500000e-01
      vertex 4.666667e+00 1.083333e+00 7.500000e-01
    endloop
  endfacet
  facet normal 0.000000e+00 0.000000e+00 -1.000000e+00
    outer loop
      vertex 4.375000e+00 -2.500000e-01 7.500000e-01
      vertex 4.666667e+00 1.083333e+00 7.500000e-01
      vertex 4.666667e+00 -4.166667e-01 7.500000e-01
    endloop
  endfacet
  facet normal 4.961389e-01 8.682431e-01 -0.000000e+00
    outer loop
      vertex 4.666667e+00 -4.166667e-01 -7.500000e-01
      vertex 4.666667e+00 -4.166667e-01 7.500000e-01
      vertex 4.958333e+00 -5.833333e-01 7.500000e-01
    endloop
  endfacet
  facet normal 4.961389e-01 8.682431e-01 0.000000e+00
    outer loop
      vertex 4.666667e+00 -4.166667e-01 -7.500000e-01
      vertex 4.958333e+00 -5.833333e-01 7.500000e-01
      vertex 4.958333e+00 -5.833333e-01 -7.500000e-01
    endloop
  endfacet
  facet normal -4.961389e-01 -8.682431e-01 0.000000e+00
    outer loop
      vertex 4.666667e+00 1.083333e+00 -7.500000e-01
      vertex 4.958333e+00 9.166667e-01 7.500000e-01
      vertex 4.666667e+00 1.083333e+00 7.500000e-01
    endloop
  endfacet
  facet normal -4.961389e-01 -8.682431e-01 0.000000e+00
    outer loop
      vertex 4.666667e+00 1.083333e+00 -7.500000e-01
      vertex 4.958333e+00 9.166667e-01 -7.500000e-01
      vertex 4.958333e+00 9.166667e-01 7.500000e-01
    endloop
  endfacet
  facet normal 0.000000e+00 0.000000e+00 1.000000e+00
    outer loop
      vertex 4.666667e+00 -4.166667e-01 -7.500000e-01
      vertex 4.958333e+00 9.166667e-01 -7.500000e-01
      vertex 4.666667e+00 1.083333e+00 -7.500000e-01
    endloop
  endfacet
  facet normal -0.000000e+00 0.000000e+00 1.000000e+00
    outer loop
      vertex 4.666667e+00 -4.166667e-01 -7.500000e-01
      vertex 4.958333e+00 -5.833333e-01 -7.500000e-01
      vertex 4.958333e+00 9.166667e-01 -7.500000e-01
    endloop
  endfacet
  facet normal 0.000000e+00 0.000000e+00 -1.000000e+00
    outer loop
      vertex 4.666667e+00 -4.166667e-01 7.500000e-01
      vertex 4.666667e+00 1.083333e+00 7.500000e-01
      vertex 4.958333e+00 9.166667e-01 7.500000e-01
    endloop
  endfacet
  facet normal 0.000000e+00 0.000000e+00 -1.000000e+00
    outer loop
      vertex 4.666667e+00 -4.166667e-01 7.500000e-01
      vertex 4.958333e+00 9.166667e-01 7.500000e-01
      vertex 4.958333e+00 -5.833333e-01 7.500000e-01
    endloop
  endfacet
  facet normal 4.961389e-01 8.682431e-01 -0.000000e+00
    outer loop
      vertex 4.958333e+00 -5.833333e-01 -7.500000e-01
      vertex 4.958333e+00 -5.833333e-01 7.500000e-01
      vertex 5.250000e+00 -7.500000e-01 7.500000e-01
    endloop
  endfacet
  facet normal 4.961389e-01 8.682431e-01 0.000000e+00
    outer loop
      vertex 4.958333e+00 -5.833333e-01 -7.500000e-01
      vertex 5.250000e+00 -7.500000e-01 7.500000e-01
      vertex 5.250000e+00 -7.500000e-01 -7.500000e-01
    endloop
  endfacet
  facet normal -4.961389e-01 -8.682431e-01 0.000000e+00
    outer loop
      vertex 4.958333e+00 9.166667e-01 -7.500000e-01
      vertex 5.250000e+00 7.500000e-01 7.500000e-01
      vertex 4.958333e+00 9.166667e-01 7.500000e-01
    endloop
  endfacet
  facet normal -4.961389e-01 -8.682431e-01 0.000000e+00
    outer loop
      vertex 4.958333e+00 9.166667e-01 -7.500000e-01
      vertex 5.250000e+00 7.500000e-01 -7.500000e-01
      vertex 5.250000e+00 7.500000e-01 7.500000e-01
    endloop
  endfacet
  facet normal 0.000000e+00 0.000000e+00 1.000000e+00
    outer loop
      vertex 4.958333e+00 -5.833333e-01 -7.500000e-01
      vertex 5.250000e+00 7.500000e-01 -7.500000e-01
      vertex 4.958333e+00 9.166667e-01 -7.500000e-01
    endloop
  endfacet
  facet normal -0.000000e+00 0.000000e+00 1.000000e+00
    outer loop
      vertex 4.958333e+00 -5.833333e-01 -7.500000e-01
      vertex 5.250000e+00 -7.500000e-01 -7.500000e-01
      vertex 5.250000e+00 7.500000e-01 -7.500000e-01
    endloop
  endfacet
  facet normal 0.000000e+00 0.000000e+00 -1.000000e+00
    outer loop
      vertex 4.958333e+00 -5.833333e-01 7.500000e-01
      vertex 4.958333e+00 9.166667e-01 7.500000e-01
      vertex 5.250000e+00 7.500000e-01 7.500000e-01
    endloop
  endfacet
  facet normal 0.000000e+00 0.000000e+00 -1.000000e+00
    outer loop
      vertex 4.958333e+00 -5.833333e-01 7.500000e-01
      vertex 5.250000e+00 7.500000e-01 7.500000e-01
      vertex 5.250000e+00 -7.500000e-01 7.500000e-01
    endloop
  endfacet
  facet normal 4.961389e-01 8.682431e-01 -0.000000e+00
    outer loop
      vertex 5.250000e+00 -7.500000e-01 -7.500000e-01
      vertex 5.250000e+00 -7.500000e-01 7.500000e-01
      vertex 5.541667e+00 -9.166667e-01 7.500000e-01
    endloop
  endfacet
  facet normal 4.961389e-01 8.682431e-01 0.000000e+00
    outer loop
      vertex 5.250000e+00 -7.500000e-01 -7.500000e-01
      vertex 5.541667e+00 -9.166667e-01 7.500000e-01
      vertex 5.541667e+00 -9.166667e-01 -7.500000e-01
    endloop
  endfacet
  facet normal -4.961389e-01 -8.682431e-01 0.000000e+00
    outer loop
      vertex 5.250000e+00 7.500000e-01 -7.500000e-01
      vertex 5.541667e+00 5.833333e-01 7.500000e-01
      vertex 5.250000e+00 7.500000e-01 7.500000e-01
    endloop
  endfacet
  facet normal -4.961389e-01 -8.682431e-01 0.000000e+00
    outer loop
      vertex 5.250000e+00 7.500000e-01 -7.500000e-01
      vertex 5.541667e+00 5.833333e-01 -7.500000e-01
      vertex 5.541667e+00 5.833333e-01 7.500000e-01
    endloop
  endfacet
  facet normal 0.000000e+00 0.000000e+00 1.000000e+00
    outer loop
      vertex 5.250000e+00 -7.500000e-01 -7.500000e-01
      vertex 5.541667e+00 5.833333e-01 -7.500000e-01
      vertex 5.250000e+00 7.500000e-01 -7.500000e-01
    endloop
  endfacet
  facet normal -0.000000e+00 0.000000e+00 1.000000e+00
    outer loop
      vertex 5.250000e+00 -7.500000e-01 -7.500000e-01
      vertex 5.541667e+00 -9.166667e-01 -7.500000e-01
      vertex 5.541667e+00 5.833333e-01 -7.500000e-01
    endloop
  endfacet
  facet normal 0.000000e+00 0.000000e+00 -1.000000e+00
    outer loop
      vertex 5.250000e+00 -7.500000e-01 7.500000e-01
      vertex 5.250000e+00 7.500000e-01 7.500000e-01
      vertex 5.541667e+00 5.833333e-01 7.500000e-01
    endloop
  endfacet
  facet normal 0.000000e+00 0.000000e+00 -1.000000e+00
    outer loop
      vertex 5.250000e+00 -7.500000e-01 7.500000e-01
      vertex 5.541667e+00 5.833333e-01 7.500000e-01
      vertex 5.541667e+00 -9.166667e-01 7.500000e-01
    endloop
  endfacet
  facet normal 4.961389e-01 8.682431e-01 -0.000000e+00
    outer loop
      vertex 5.541667e+00 -9.166667e-01 -7.500000e-01
      vertex 5.541667e+00 -9.166667e-01 7.500000e-01
      vertex 5.833333e+00 -1.083333e+00 7.500000e-01
    endloop
  endfacet
  facet normal 4.961389e-01 8.682431e-01 0.000000e+00
    outer loop
      vertex 5.541667e+00 -9.166667e-01 -7.500000e-01
      vertex 5.833333e+00 -1.083333e+00 7.500000e-01
      vertex 5.833333e+00 -1.083333e+00 -7.500000e-01
    endloop
  endfacet
  facet normal -4.961389e-01 -8.682431e-01 0.000000e+00
    outer loop
      vertex 5.541667e+00 5.833333e-01 -7.500000e-01
      vertex 5.833333e+00 4.166667e-01 7.500000e-01
      vertex 5.541667e+00 5.833333e-01 7.500000e-01
    endloop
  endfacet
  facet normal -4.961389e-01 -8.682431e-01 0.000000e+00
    outer loop
      vertex 5.541667e+00 5.833333e-01 -7.500000e-01
      vertex 5.833333e+00 4.166667e-01 -7.500000e-01
      vertex 5.833333e+00 4.166667e-01 7.500000e-01
    endloop
  endfacet
  facet normal 0.000000e+00 0.000000e+00 1.000000e+00
    outer loop
      vertex 5.541667e+00 -9.166667e-01 -7.500000e-01
      vertex 5.833333e+00 4.166667e-01 -7.500000e-01
      vertex 5.541667e+00 5.833333e-01 -7.500000e-01
    endloop
  endfacet
  facet normal -0.000000e+00 0.000000e+00 1.000000e+00
    outer loop
      vertex 5.541667e+00 -9.166667e-01 -7.500000e-01
      vertex 5.833333e+00 -1.083333e+00 -7.500000e-01
      vertex 5.833333e+00 4.166667e-01 -7.500000e-01
    endloop
  endfacet
  facet normal 0.000000e+00 0.000000e+00 -1.000000e+00
    outer loop
      vertex 5.541667e+00 -9.166667e-01 7.500000e-01
      vertex 5.541667e+00 5.833333e-01 7.500000e-01
      vertex 5.833333e+00 4.166667e-01 7.500000e-01
    endloop
  endfacet
  facet normal 0.000000e+00 0.000000e+00 -1.000000e+00
    outer loop
      vertex 5.541667e+00 -9.166667e-01 7.500000e-01
      vertex 5.833333e+00 4.166667e-01 7.500000e-01
      vertex 5.833333e+00 -1.083333e+00 7.500000e-01
    endloop
  endfacet
  facet normal 4.961389e-01 8.682431e-01 -0.000000e+00
    outer loop
      vertex 5.833333e+00 -1.083333e+00 -7.500000e-01
      vertex 5.833333e+00 -1.083333e+00 7.500000e-01
      vertex 6.125000e+00 -1.250000e+00 7.500000e-01
    endloop
  endfacet
  facet normal 4.961389e-01 8.682431e-01 0.000000e+00
    outer loop
      vertex 5.833333e+00 -1.083333e+00 -7.500000e-01
      vertex 6.125000e+00 -1.250000e+00 7.500000e-01
      vertex 6.125000e+00 -1.250000e+00 -7.500000e-01
    endloop
  endfacet
  facet normal -4.961389e-01 -8.682431e-01 0.000000e+00
    outer loop
      vertex 5.833333e+00 4.166667e-01 -7.500000e-01
      vertex 6.125000e+00 2.500000e-01 7.500000e-01
      vertex 5.833333e+00 4.166667e-01 7.500000e-01
    endloop
  endfacet
  facet normal -4.961389e-01 -8.682431e-01 0.000000e+00
    outer loop
      vertex 5.833333e+00 4.166667e-01 -7.500000e-01
      vertex 6.125000e+00 2.500000e-01 -7.500000e-01
      vertex 6.125000e+00 2.500000e-01 7.500000e-01
    endloop
  endfacet
  facet normal 0.000000e+00 0.000000e+00 1.000000e+00
    outer loop
      vertex 5.833333e+00 -1.083333e+00 -7.500000e-01
      vertex 6.125000e+00 2.500000e-01 -7.500000e-01
      vertex 5.833333e+00 4.166667e-01 -7.500000e-01
    endloop
  endfacet
  facet normal -0.000000e+00 0.000000e+00 1.000000e+00
    outer loop
      vertex 5.833333e+00 -1.083333e+00 -7.500000e-01
      vertex 6.125000e+00 -1.250000e+00 -7.500000e-01
      vertex 6.125000e+00 2.500000e-01 -7.500000e-01
    endloop
  endfacet
  facet normal 0.000000e+00 0.000000e+00 -1.000000e+00
    outer loop
      vertex 5.833333e+00 -1.083333e+00 7.500000e-01
      vertex 5.833333e+00 4.166667e-01 7.500000e-01
      vertex 6.125000e+00 2.500000e-01 7.500000e-01
    endloop
  endfacet
  facet normal 0.000000e+00 0.000000e+00 -1.000000e+00
    outer loop
      vertex 5.833333e+00 -1.083333e+00 7.500000e-01
      vertex 6.125000e+00 2.500000e-01 7.500000e-01
      vertex 6.125000e+00 -1.250000e+00 7.500000e-01
    endloop
  endfacet
  facet normal 4.961389e-01 8.682431e-01 -0.000000e+00
    outer loop
      vertex 6.125000e+00 -1.250000e+00 -7.500000e-01
      vertex 6.125000e+00 -1.250000e+00 7.500000e-01
      vertex 6.416667e+00 -1.416667e+00 7.500000e-01
    endloop
  endfacet
  facet normal 4.961389e-01 8.682431e-01 0.000000e+00
    outer loop
      vertex 6.125000e+00 -1.250000e+00 -7.500000e-01
      vertex 6.416667e+00 -1.416667e+00 7.500000e-01
      vertex 6.416667e+00 -1.416667e+00 -7.500000e-01
    endloop
  endfacet
  facet normal -4.961389e-01 -8.682431e-01 0.000000e+00
    outer loop
      vertex 6.125000e+00 2.500000e-01 -7.500000e-01
      vertex 6.416667e+00 8.333333e-02 7.500000e-01
      vertex 6.125000e+00 2.500000e-01 7.500000e-01
    endloop
  endfacet
  facet normal -4.961389e-01 -8.682431e-01 0.000000e+00
    outer loop
      vertex 6.125000e+00 2.500000e-01 -7.500000e-01
      vertex 6.416667e+00 8.333333e-02 -7.500000e-01
      vertex 6.416667e+00 8.333333e-02 7.500000e-01
    endloop
  endfacet
  facet normal 0.000000e+00 0.000000e+00 1.000000e+00
    outer loop
      vertex 6.125000e+00 -1.250000e+00 -7.500000e-01
      vertex 6.416667e+00 8.333333e-02 -7.500000e-01
      vertex 6.125000e+00 2.500000e-01 -7.500000e-01
    endloop
  endfacet
  facet normal -0.000000e+00 0.000000e+00 1.000000e+00
    outer loop
      vertex 6.125000e+00 -1.250000e+00 -7.500000e-01
      vertex 6.416667e+00 -1.416667e+00 -7.500000e-01
      vertex 6.416667e+00 8.333333e-02 -7.500000e-01
    endloop
  endfacet
  facet normal 0.000000e+00 0.000000e+00 -1.000000e+00
    outer loop
      vertex 6.125000e+00 -1.250000e+00 7.500000e-01
      vertex 6.125000e+00 2.500000e-01 7.500000e-01
      vertex 6.416667e+00 8.333333e-02 7.500000e-01
    endloop
  endfacet
  facet normal 0.000000e+00 0.000000e+00 -1.000000e+00
    outer loop
      vertex 6.125000e+00 -1.250000e+00 7.500000e-01
      vertex 6.416667e+00 8.333333e-02 7.500000e-01
      vertex 6.416667e+00 -1.416667e+00 7.500000e-01
    endloop
  endfacet
  facet normal 4.961389e-01 8.682431e-01 -0.000000e+00
    outer loop
      vertex 6.416667e+00 -1.416667e+00 -7.500000e-01
      vertex 6.416667e+00 -1.416667e+00 7.500000e-01
      vertex 6.708333e+00 -1.583333e+00 7.500000e-01
    endloop
  endfacet
  facet normal 4.961389e-01 8.682431e-01 0.000000e+00
    outer loop
      vertex 6.416667e+00 -1.416667e+00 -7.500000e-01
      vertex 6.708333e+00 -1.583333e+00 7.500000e-01
      vertex 6.708333e+00 -1.583333e+00 -7.500000e-01
    endloop
  endfacet
  facet normal -4.961389e-01 -8.682431e-01 0.000000e+00
    outer loop
      vertex 6.416667e+00 8.333333e-02 -7.500000e-01
      vertex 6.708333e+00 -8.333333e-02 7.500000e-01
      vertex 6.416667e+00 8.333333e-02 7.500000e-01
    endloop
  endfacet
  facet normal -4.961389e-01 -8.682431e-01 0.000000e+00
    outer loop
      vertex 6.416667e+00 8.333333e-02 -7.500000e-01
      vertex 6.708333e+00 -8.333333e-02 -7.500000e-01
      vertex 6.708333e+00 -8.333333e-02 7.500000e-01
    endloop
  endfacet
  facet normal 0.000000e+00 0.000000e+00 1.000000e+00
    outer loop
      vertex 6.416667e+00 -1.416667e+00 -7.500000e-01
      vertex 6.708333e+00 -8.333333e-02 -7.500000e-01
      vertex 6.416667e+00 8.333333e-02 -7.500000e-01
    endloop
  endfacet
  facet normal -0.000000e+00 0.000000e+00 1.000000e+00
    outer loop
      vertex 6.416667e+00 -1.416667e+00 -7.500000e-01
      vertex 6.708333e+00 -1.583333e+00 -7.500000e-01
      vertex 6.708333e+00 -8.333333e-02 -7.500000e-01
    endloop
  endfacet
  facet normal 0.000000e+00 0.000000e+00 -1.000000e+00
    outer loop
      vertex 6.416667e+00 -1.416667e+00 7.500000e-01
      vertex 6.416667e+00 8.333333e-02 7.500000e-01
      vertex 6.708333e+00 -8.333333e-02 7.500000e-01
    endloop
  endfacet
  facet normal 0.000000e+00 0.000000e+00 -1.000000e+00
    outer loop
      vertex 6.416667e+00 -1.416667e+00 7.500000e-01
      vertex 6.708333e+00 -8.333333e-02 7.500000e-01
      vertex 6.708333e+00 -1.583333e+00 7.500000e-01
    endloop
  endfacet
  facet normal 4.961389e-01 8.682431e-01 -0.000000e+00
    outer loop
      vertex 6.708333e+00 -1.583333e+00 -7.500000e-01
      vertex 6.708333e+00 -1.583333e+00 7.500000e-01
      vertex 7.000000e+00 -1.750000e+00 7.500000e-01
    endloop
  endfacet
  facet normal 4.961389e-01 8.682431e-01 0.000000e+00
    outer loop
      vertex 6.708333e+00 -1.583333e+00 -7.500000e-01
      vertex 7.000000e+00 -1.750000e+00 7.500000e-01
      vertex 7.000000e+00 -1.750000e+00 -7.500000e-01
    endloop
  endfacet
  facet normal -4.961389e-01 -8.682431e-01 0.000000e+00
    outer loop
      vertex 6.708333e+00 -8.333333e-02 -7.500000e-01
      vertex 7.000000e+00 -2.500000e-01 7.500000e-01
      vertex 6.708333e+00 -8.333333e-02 7.500000e-01
    endloop
  endfacet
  facet normal -4.961389e-01 -8.682431e-01 0.000000e+00
    outer loop
      vertex 6.708333e+00 -8.333333e-02 -7.500000e-01
      vertex 7.000000e+00 -2.500000e-01 -7.500000e-01
      vertex 7.000000e+00 -2.500000e-01 7.500000e-01
    endloop
  endfacet
  facet normal 0.000000e+00 0.000000e+00 1.000000e+00
    outer loop
      vertex 6.708333e+00 -1.583333e+00 -7.500000e-01
      vertex 7.000000e+00 -2.500000e-01 -7.500000e-01
      vertex 6.708333e+00 -8.333333e-02 -7.500000e-01
    endloop
  endfacet
  facet normal -0.000000e+00 0.000000e+00 1.000000e+00
    outer loop
      vertex 6.708333e+00 -1.583333e+00 -7.500000e-01
      vertex 7.000000e+00 -1.750000e+00 -7.500000e-01
      vertex 7.000000e+00 -2.500000e-01 -7.500000e-01
    endloop
  endfacet
  facet normal 0.000000e+00 0.000000e+00 -1.000000e+00
    outer loop
      vertex 6.708333e+00 -1.583333e+00 7.500000e-01
      vertex 6.708333e+00 -8.333333e-02 7.500000e-01
      vertex 7.000000e+00 -2.500000e-01 7.500000e-01
    endloop
  endfacet
  facet normal 0.000000e+00 0.000000e+00 -1.000000e+00
    outer loop
      vertex 6.708333e+00 -1.583333e+00 7.500000e-01
      vertex 7.000000e+00 -2.500000e-01 7.500000e-01
      vertex 7.000000e+00 -1.750000e+00 7.500000e-01
    endloop
  endfacet
  facet normal -4.961389e-01 8.682431e-01 0.000000e+00
    outer loop
      vertex 7.000000e+00 -1.750000e+00 -7.500000e-01
      vertex 7.000000e+00 -1.750000e+00 7.500000e-01
      vertex 7.291667e+00 -1.583333e+00 7.500000e-01
    endloop
  endfacet
  facet normal -4.961389e-01 8.682431e-01 0.000000e+00
    outer loop
      vertex 7.000000e+00 -1.750000e+00 -7.500000e-01
      vertex 7.291667e+00 -1.583333e+00 7.500000e-01
      vertex 7.291667e+00 -1.583333e+00 -7.500000e-01
    endloop
  endfacet
  facet normal 4.961389e-01 -8.682431e-01 0.000000e+00
    outer loop
      vertex 7.000000e+00 -2.500000e-01 -7.500000e-01
      vertex 7.291667e+00 -8.333333e-02 7.500000e-01
      vertex 7.000000e+00 -2.500000e-01 7.500000e-01
    endloop
  endfacet
  facet normal 4.961389e-01 -8.682431e-01 0.000000e+00
    outer loop
      vertex 7.000000e+00 -2.500000e-01 -7.500000e-01
      vertex 7.291667e+00 -8.333333e-02 -7.500000e-01
      vertex 7.291667e+00 -8.333333e-02 7.500000e-01
    endloop
  endfacet
  facet normal 0.000000e+00 0.000000e+00 1.000000e+00
    outer loop
      vertex 7.000000e+00 -1.750000e+00 -7.500000e-01
      vertex 7.291667e+00 -8.333333e-02 -7.500000e-01
      vertex 7.000000e+00 -2.500000e-01 -7.500000e-01
    endloop
  endfacet
  facet normal 0.000000e+00 0.000000e+00 1.000000e+00
    outer loop
      vertex 7.000000e+00 -1.750000e+00 -7.500000e-01
      vertex 7.291667e+00 -1.583333e+00 -7.500000e-01
      vertex 7.291667e+00 -8.333333e-02 -7.500000e-01
    endloop
  endfacet
  facet normal 0.000000e+00 0.000000e+00 -1.000000e+00
    outer loop
      vertex 7.000000e+00 -1.750000e+00 7.500000e-01
      vertex 7.000000e+00 -2.500000e-01 7.500000e-01
      vertex 7.291667e+00 -8.333333e-02 7.500000e-01
    endloop
  endfacet
  facet normal 0.000000e+00 0.000000e+00 -1.000000e+00
    outer loop
      vertex 7.000000e+00 -1.750000e+00 7.500000e-01
      vertex 7.291667e+00 -8.333333e-02 7.500000e-01
      vertex 7.291667e+00 -1.583333e+00 7.500000e-01
    endloop
  endfacet
  facet normal -4.961389e-01 8.682431e-01 0.000000e+00
    outer loop
      vertex 7.291667e+00 -1.583333e+00 -7.500000e-01
      vertex 7.291667e+00 -1.583333e+00 7.500000e-01
      vertex 7.583333e+00 -1.416667e+00 7.500000e-01
    endloop
  endfacet
  facet normal -4.961389e-01 8.682431e-01 0.000000e+00
    outer loop
      vertex 7.291667e+00 -1.583333e+00 -7.500000e-01
      vertex 7.583333e+00 -1.416667e+00 7.500000e-01
      vertex 7.583333e+00 -1.416667e+00 -7.500000e-01
    endloop
  endfacet
  facet normal 4.961389e-01 -8.682431e-01 0.000000e+00
    outer loop
      vertex 7.291667e+00 -8.333333e-02 -7.500000e-01
      vertex 7.583333e+00 8.333333e-02 7.500000e-01
      vertex 7.291667e+00 -8.333333e-02 7.500000e-01
    endloop
  endfacet
  facet normal 4.961389e-01 -8.682431e-01 0.000000e+00
    outer loop
      vertex 7.291667e+00 -8.333333e-02 -7.500000e-01
      vertex 7.583333e+00 8.333333e-02 -7.500000e-01
      vertex 7.583333e+00 8.333333e-02 7.500000e-01
    endloop
  endfacet
  facet normal 0.000000e+00 0.000000e+00 1.000000e+00
    outer loop
      vertex 7.291667e+00 -1.583333e+00 -7.500000e-01
      vertex 7.583333e+00 8.333333e-02 -7.500000e-01
      vertex 7.291667e+00 -8.333333e-02 -7.500000e-01
    endloop
  endfacet
  facet normal 0.000000e+00 0.000000e+00 1.000000e+00
    outer loop
      vertex 7.291667e+00 -1.583333e+00 -7.500000e-01
      vertex 7.583333e+00 -1.416667e+00 -7.500000e-01
      vertex 7.583333e+00 8.333333e-02 -7.500000e-01
    endloop
  endfacet
  facet normal 0.000000e+00 0.000000e+00 -1.000000e+00
    outer loop
      vertex 7.291667e+00 -1.583333e+00 7.500000e-01
      vertex 7.291667e+00 -8.333333e-02 7.500000e-01
      vertex 7.583333e+00 8.333333e-02 7.500000e-01
    endloop
  endfacet
  facet normal 0.000000e+00 0.000000e+00 -1.000000e+00
    outer loop
      vertex 7.291667e+00 -1.583333e+00 7.500000e-01
      vertex 7.583333e+00 8.333333e-02 7.500000e-01
      vertex 7.583333e+00 -1.416667e+00 7.500000e-01
    endloop
  endfacet
  facet normal -4.961389e-01 8.682431e-01 0.000000e+00
    outer loop
      vertex 7.583333e+00 -1.416667e+00 -7.500000e-01
      vertex 7.583333e+00 -1.416667e+00 7.500000e-01
      vertex 7.875000e+00 -1.250000e+00 7.500000e-01
    endloop
  endfacet
  facet normal -4.961389e-01 8.682431e-01 0.000000e+00
    outer loop
      vertex 7.583333e+00 -1.416667e+00 -7.500000e-01
      vertex 7.875000e+00 -1.250000e+00 7.500000e-01
      vertex 7.875000e+00 -1.250000e+00 -7.500000e-01
    endloop
  endfacet
  facet normal 4.961389e-01 -8.682431e-01 0.000000e+00
    outer loop
      vertex 7.583333e+00 8.333333e-02 -7.500000e-01
      vertex 7.875000e+00 2.500000e-01 7.500000e-01
      vertex 7.583333e+00 8.333333e-02 7.500000e-01
    endloop
  endfacet
  facet normal 4.961389e-01 -8.682431e-01 0.000000e+00
    outer loop
      vertex 7.583333e+00 8.333333e-02 -7.500000e-01
      vertex 7.875000e+00 2.500000e-01 -7.500000e-01
      vertex 7.875000e+00 2.500000e-01 7.500000e-01
    endloop
  endfacet
  facet normal 0.000000e+00 0.000000e+00 1.000000e+00
    outer loop
      vertex 7.583333e+00 -1.416667e+00 -7.500000e-01
      vertex 7.875000e+00 2.500000e-01 -7.500000e-01
      vertex 7.583333e+00 8.333333e-02 -7.500000e-01
    endloop
  endfacet
  facet normal 0.000000e+00 0.000000e+00 1.000000e+00
    outer loop
      vertex 7.583333e+00 -1.416667e+00 -7.500000e-01
      vertex 7.875000e+00 -1.250000e+00 -7.500000e-01
      vertex 7.875000e+00 2.500000e-01 -7.500000e-01
    endloop
  endfacet
  facet normal 0.000000e+00 0.000000e+00 -1.000000e+00
    outer loop
      vertex 7.583333e+00 -1.416667e+00 7.500000e-01
      vertex 7.583333e+00 8.333333e-02 7.500000e-01
      vertex 7.875000e+00 2.500000e-01 7.500000e-01
    endloop
  endfacet
  facet normal 0.000000e+00 0.000000e+00 -1.000000e+00
    outer loop
      vertex 7.583333e+00 -1.416667e+00 7.500000e-01
      vertex 7.875000e+00 2.500000e-01 7.500000e-01
      vertex 7.875000e+00 -1.250000e+00 7.500000e-01
    endloop
  endfacet
  facet normal -4.961389e-01 8.682431e-01 0.000000e+00
    outer loop
      vertex 7.875000e+00 -1.250000e+00 -7.500000e-01
      vertex 7.875000e+00 -1.250000e+00 7.500000e-01
      vertex 8.166667e+00 -1.083333e+00 7.500000e-01
    endloop
  endfacet
  facet normal -4.961389e-01 8.682431e-01 0.000000e+00
    outer loop
      vertex 7.875000e+00 -1.250000e+00 -7.500000e-01
      vertex 8.166667e+00 -1.083333e+00 7.500000e-01
      vertex 8.166667e+00 -1.083333e+00 -7.500000e-01
    endloop
  endfacet
  facet normal 4.961389e-01 -8.682431e-01 0.000000e+00
    outer loop
      vertex 7.875000e+00 2.500000e-01 -7.500000e-01
      vertex 8.166667e+00 4.166667e-01 7.500000e-01
      vertex 7.875000e+00 2.500000e-01 7.500000e-01
    endloop
  endfacet
  facet normal 4.961389e-01 -8.682431e-01 0.000000e+00
    outer loop
      vertex 7.875000e+00 2.500000e-01 -7.500000e-01
      vertex 8.166667e+00 4.166667e-01 -7.500000e-01
      vertex 8.166667e+00 4.166667e-01 7.500000e-01
    endloop
  endfacet
  facet normal 0.000000e+00 0.000000e+00 1.000000e+00
    outer loop
      vertex 7.875000e+00 -1.250000e+00 -7.500000e-01
      vertex 8.166667e+00 4.166667e-01 -7.500000e-01
      vertex 7.875000e+00 2.500000e-01 -7.500000e-01
    endloop
  endfacet
  facet normal 0.000000e+00 0.000000e+00 1.000000e+00
    outer loop
      vertex 7.875000e+00 -1.250000e+00 -7.500000e-01
      vertex 8.166667e+00 -1.083333e+00 -7.500000e-01
      vertex 8.166667e+00 4.166667e-01 -7.500000e-01
    endloop
  endfacet
  facet normal 0.000000e+00 0.000000e+00 -1.000000e+00
    outer loop
      vertex 7.875000e+00 -1.250000e+00 7.500000e-01
      vertex 7.875000e+00 2.500000e-01 7.500000e-01
      vertex 8.166667e+00 4.166667e-01 7.500000e-01
    endloop
  endfacet
  facet normal 0.000000e+00 0.000000e+00 -1.000000e+00
    outer loop
      vertex 7.875000e+00 -1.250000e+00 7.500000e-01
      vertex 8.166667e+00 4.166667e-01 7.500000e-01
      vertex 8.166667e+00 -1.083333e+00 7.500000e-01
    endloop
  endfacet
  facet normal -4.961389e-01 8.682431e-01 0.000000e+00
    outer loop
      vertex 8.166667e+00 -1.083333e+00 -7.500000e-01
      vertex 8.166667e+00 -1.083333e+00 7.500000e-01
      vertex 8.458333e+00 -9.166667e-01 7.500000e-01
    endloop
  endfacet
  facet normal -4.961389e-01 8.682431e-01 0.000000e+00
    outer loop
      vertex 8.166667e+00 -1.083333e+00 -7.500000e-01
      vertex 8.458333e+00 -9.166667e-01 7.500000e-01
      vertex 8.458333e+00 -9.166667e-01 -7.500000e-01
    endloop
  endfacet
  facet normal 4.961389e-01 -8.682431e-01 0.000000e+00
    outer loop
      vertex 8.166667e+00 4.166667e-01 -7.500000e-01
      vertex 8.458333e+00 5.833333e-01 7.500000e-01
      vertex 8.166667e+00 4.166667e-01 7.500000e-01
    endloop
  endfacet
  facet normal 4.961389e-01 -8.682431e-01 0.000000e+00
    outer loop
      vertex 8.166667e+00 4.166667e-01 -7.500000e-01
      vertex 8.458333e+00 5.833333e-01 -7.500000e-01
      vertex 8.458333e+00 5.833333e-01 7.500000e-01
    endloop
  endfacet
  facet normal 0.000000e+00 0.000000e+00 1.000000e+00
    outer loop
      vertex 8.166667e+00 -1.083333e+00 -7.500000e-01
      vertex 8.458333e+00 5.833333e-01 -7.500000e-01
      vertex 8.166667e+00 4.166667e-01 -7.500000e-01
    endloop
  endfacet
  facet normal 0.000000e+00 0.000000e+00 1.000000e+00
    outer loop
      vertex 8.166667e+00 -1.083333e+00 -7.500000e-01
      vertex 8.458333e+00 -9.166667e-01 -7.500000e-01
      vertex 8.458333e+00 5.833333e-01 -7.500000e-01
    endloop
  endfacet
  facet normal 0.000000e+00 0.000000e+00 -1.000000e+00
    outer loop
      vertex 8.166667e+00 -1.083333e+00 7.500000e-01
      vertex 8.166667e+00 4.166667e-01 7.500000e-01
      vertex 8.458333e+00 5.833333e-01 7.500000e-01
    endloop
  endfacet
  facet normal 0.000000e+00 0.000000e+00 -1.000000e+00
    outer loop
      vertex 8.166667e+00 -1.083333e+00 7.500000e-01
      vertex 8.458333e+00 5.833333e-01 7.500000e-01
      vertex 8.458333e+00 -9.166667e-01 7.500000e-01
    endloop
  endfacet
  facet normal -4.961389e-01 8.682431e-01 0.000000e+00
    outer loop
      vertex 8.458333e+00 -9.166667e-01 -7.500000e-01
      vertex 8.458333e+00 -9.166667e-01 7.500000e-01
      vertex 8.750000e+00 -7.500000e-01 7.500000e-01
    endloop
  endfacet
  facet normal -4.961389e-01 8.682431e-01 0.000000e+00
    outer loop
      vertex 8.458333e+00 -9.166667e-01 -7.500000e-01
      vertex 8.750000e+00 -7.500000e-01 7.500000e-01
      vertex 8.750000e+00 -7.500000e-01 -7.500000e-01
    endloop
  endfacet
  facet normal 4.961389e-01 -8.682431e-01 0.000000e+00
    outer loop
      vertex 8.458333e+00 5.833333e-01 -7.500000e-01
      vertex 8.750000e+00 7.500000e-01 7.500000e-01
      vertex 8.458333e+00 5.833333e-01 7.500000e-01
    endloop
  endfacet
  facet normal 4.961389e-01 -8.682431e-01 0.000000e+00
    outer loop
      vertex 8.458333e+00 5.833333e-01 -7.500000e-01
      vertex 8.750000e+00 7.500000e-01 -7.500000e-01
      vertex 8.750000e+00 7.500000e-01 7.500000e-01
    endloop
  endfacet
  facet normal 0.000000e+00 0.000000e+00 1.000000e+00
    outer loop
      vertex 8.458333e+00 -9.166667e-01 -7.500000e-01
      vertex 8.750000e+00 7.500000e-01 -7.500000e-01
      vertex 8.458333e+00 5.833333e-01 -7.500000e-01
    endloop
  endfacet
  facet normal 0.000000e+00 0.000000e+00 1.000000e+00
    outer loop
      vertex 8.458333e+00 -9.166667e-01 -7.500000e-01
      vertex 8.750000e+00 -7.500000e-01 -7.500000e-01
      vertex 8.750000e+00 7.500000e-01 -7.500000e-01
    endloop
  endfacet
  facet normal 0.000000e+00 0.000000e+00 -1.000000e+00
    outer loop
      vertex 8.458333e+00 -9.166667e-01 7.500000e-01
      vertex 8.458333e+00 5.833333e-01 7.500000e-01
      vertex 8.750000e+00 7.500000e-01 7.500000e-01
    endloop
  endfacet
  facet normal 0.000000e+00 0.000000e+00 -1.000000e+00
    outer loop
      vertex 8.458333e+00 -9.166667e-01 7.500000e-01
      vertex 8.750000e+00 7.500000e-01 7.500000e-01
      vertex 8.750000e+00 -7.500000e-01 7.500000e-01
    endloop
  endfacet
  facet normal -4.961389e-01 8.682431e-01 0.000000e+00
    outer loop
      vertex 8.750000e+00 -7.500000e-01 -7.500000e-01
      vertex 8.750000e+00 -7.500000e-01 7.500000e-01
      vertex 9.041667e+00 -5.833333e-01 7.500000e-01
    endloop
  endfacet
  facet normal -4.961389e-01 8.682431e-01 0.000000e+00
    outer loop
      vertex 8.750000e+00 -7.500000e-01 -7.500000e-01
      vertex 9.041667e+00 -5.833333e-01 7.500000e-01
      vertex 9.041667e+00 -5.833333e-01 -7.500000e-01
    endloop
  endfacet
  facet normal 4.961389e-01 -8.682431e-01 0.000000e+00
    outer loop
      vertex 8.750000e+00 7.500000e-01 -7.500000e-01
      vertex 9.041667e+00 9.166667e-01 7.500000e-01
      vertex 8.750000e+00 7.500000e-01 7.500000e-01
    endloop
  endfacet
  facet normal 4.961389e-01 -8.682431e-01 0.000000e+00
    outer loop
      vertex 8.750000e+00 7.500000e-01 -7.500000e-01
      vertex 9.041667e+00 9.166667e-01 -7.500000e-01
      vertex 9.041667e+00 9.166667e-01 7.500000e-01
    endloop
  endfacet
  facet normal 0.000000e+00 0.000000e+00 1.000000e+00
    outer loop
      vertex 8.750000e+00 -7.500000e-01 -7.500000e-01
      vertex 9.041667e+00 9.166667e-01 -7.500000e-01
      vertex 8.750000e+00 7.500000e-01 -7.500000e-01
    endloop
  endfacet
  facet normal 0.000000e+00 0.000000e+00 1.000000e+00
    outer loop
      vertex 8.750000e+00 -7.500000e-01 -7.500000e-01
      vertex 9.041667e+00 -5.833333e-01 -7.500000e-01
      vertex 9.041667e+00 9.166667e-01 -7.500000e-01
    endloop
  endfacet
  facet normal 0.000000e+00 0.000000e+00 -1.000000e+00
    outer loop
      vertex 8.750000e+00 -7.500000e-01 7.500000e-01
      vertex 8.750000e+00 7.500000e-01 7.500000e-01
      vertex 9.041667e+00 9.166667e-01 7.500000e-01
    endloop
  endfacet
  facet normal 0.000000e+00 0.000000e+00 -1.000000e+00
    outer loop
      vertex 8.750000e+00 -7.500000e-01 7.500000e-01
      vertex 9.041667e+00 9.166667e-01 7.500000e-01
      vertex 9.041667e+00 -5.833333e-01 7.500000e-01
    endloop
  endfacet
  facet normal -4.961389e-01 8.682431e-01 0.000000e+00
    outer loop
      vertex 9.041667e+00 -5.833333e-01 -7.500000e-01
      vertex 9.041667e+00 -5.833333e-01 7.500000e-01
      vertex 9.333333e+00 -4.166667e-01 7.500000e-01
    endloop
  endfacet
  facet normal -4.961389e-01 8.682431e-01 0.000000e+00
    outer loop
      vertex 9.041667e+00 -5.833333e-01 -7.500000e-01
      vertex 9.333333e+00 -4.166667e-01 7.500000e-01
      vertex 9.333333e+00 -4.166667e-01 -7.500000e-01
    endloop
  endfacet
  facet normal 4.961389e-01 -8.682431e-01 0.000000e+00
    outer loop
      vertex 9.041667e+00 9.166667e-01 -7.500000e-01
      vertex 9.333333e+00 1.083333e+00 7.500000e-01
      vertex 9.041667e+00 9.166667e-01 7.500000e-01
    endloop
  endfacet
  facet normal 4.961389e-01 -8.682431e-01 0.000000e+00
    outer loop
      vertex 9.041667e+00 9.166667e-01 -7.500000e-01
      vertex 9.333333e+00 1.083333e+00 -7.500000e-01
      vertex 9.333333e+00 1.083333e+00 7.500000e-01
    endloop
  endfacet
  facet normal 0.000000e+00 0.000000e+00 1.000000e+00
    outer loop
      vertex 9.041667e+00 -5.833333e-01 -7.500000e-01
      vertex 9.333333e+00 1.083333e+00 -7.500000e-01
      vertex 9.041667e+00 9.166667e-01 -7.500000e-01
    endloop
  endfacet
  facet normal 0.000000e+00 0.000000e+00 1.000000e+00
    outer loop
      vertex 9.041667e+00 -5.833333e-01 -7.500000e-01
      vertex 9.333333e+00 -4.166667e-01 -7.500000e-01
      vertex 9.333333e+00 1.083333e+00 -7.500000e-01
    endloop
  endfacet
  facet normal 0.000000e+00 0.000000e+00 -1.000000e+00
    outer loop
      vertex 9.041667e+00 -5.833333e-01 7.500000e-01
      vertex 9.041667e+00 9.166667e-01 7.500000e-01
      vertex 9.333333e+00 1.083333e+00 7.500000e-01
    endloop
  endfacet
  facet normal 0.000000e+00 0.000000e+00 -1.000000e+00
    outer loop
      vertex 9.041667e+00 -5.833333e-01 7.500000e-01
      vertex 9.333333e+00 1.083333e+00 7.500000e-01
      vertex 9.333333e+00 -4.166667e-01 7.500000e-01
    endloop
  endfacet
  facet normal -4.961389e-01 8.682431e-01 0.000000e+00
    outer loop
      vertex 9.333333e+00 -4.166667e-01 -7.500000e-01
      vertex 9.333333e+00 -4.166667e-01 7.500000e-01
      vertex 9.625000e+00 -2.500000e-01 7.500000e-01
    endloop
  endfacet
  facet normal -4.961389e-01 8.682431e-01 0.000000e+00
    outer loop
      vertex 9.333333e+00 -4.166667e-01 -7.500000e-01
      vertex 9.625000e+00 -2.500000e-01 7.500000e-01
      vertex 9.625000e+00 -2.500000e-01 -7.500000e-01
    endloop
  endfacet
  facet normal 4.961389e-01 -8.682431e-01 0.000000e+00
    outer loop
      vertex 9.333333e+00 1.083333e+00 -7.500000e-01
      vertex 9.625000e+00 1.250000e+00 7.500000e-01
      vertex 9.333333e+00 1.083333e+00 7.500000e-01
    endloop
  endfacet
  facet normal 4.961389e-01 -8.682431e-01 0.000000e+00
    outer loop
      vertex 9.333333e+00 1.083333e+00 -7.500000e-01
      vertex 9.625000e+00 1.250000e+00 -7.500000e-01
      vertex 9.625000e+00 1.250000e+00 7.500000e-01
    endloop
  endfacet
  facet normal 0.000000e+00 0.000000e+00 1.000000e+00
    outer loop
      vertex 9.333333e+00 -4.166667e-01 -7.500000e-01
      vertex 9.625000e+00 1.250000e+00 -7.500000e-01
      vertex 9.333333e+00 1.083333e+00 -7.500000e-01
    endloop
  endfacet
  facet normal 0.000000e+00 0.000000e+00 1.000000e+00
    outer loop
      vertex 9.333333e+00 -4.166667e-01 -7.500000e-01
      vertex 9.625000e+00 -2.500000e-01 -7.500000e-01
      vertex 9.625000e+00 1.250000e+00 -7.500000e-01
    endloop
  endfacet
  facet normal 0.000000e+00 0.000000e+00 -1.000000e+00
    outer loop
      vertex 9.333333e+00 -4.166667e-01 7.500000e-01
      vertex 9.333333e+00 1.083333e+00 7.500000e-01
      vertex 9.625000e+00 1.250000e+00 7.500000e-01
    endloop
  endfacet
  facet normal 0.000000e+00 0.000000e+00 -1.000000e+00
    outer loop
      vertex 9.333333e+00 -4.166667e-01 7.500000e-01
      vertex 9.625000e+00 1.250000e+00 7.500000e-01
      vertex 9.625000e+00 -2.500000e-01 7.500000e-01
    endloop
  endfacet
  facet normal -4.961389e-01 8.682431e-01 0.000000e+00
    outer loop
      vertex 9.625000e+00 -2.500000e-01 -7.500000e-01
      vertex 9.625000e+00 -2.500000e-01 7.500000e-01
      vertex 9.916667e+00 -8.333333e-02 7.500000e-01
    endloop
  endfacet
  facet normal -4.961389e-01 8.682431e-01 0.000000e+00
    outer loop
      vertex 9.625000e+00 -2.500000e-01 -7.500000e-01
      vertex 9.916667e+00 -8.333333e-02 7.500000e-01
      vertex 9.916667e+00 -8.333333e-02 -7.500000e-01
    endloop
  endfacet
  facet normal 4.961389e-01 -8.682431e-01 0.000000e+00
    outer loop
      vertex 9.625000e+00 1.250000e+00 -7.500000e-01
      vertex 9.916667e+00 1.416667e+00 7.500000e-01
      vertex 9.625000e+00 1.250000e+00 7.500000e-01
    endloop
  endfacet
  facet normal 4.961389e-01 -8.682431e-01 0.000000e+00
    outer loop
      vertex 9.625000e+00 1.250000e+00 -7.500000e-01
      vertex 9.916667e+00 1.416667e+00 -7.500000e-01
      vertex 9.916667e+00 1.416667e+00 7.500000e-01
    endloop
  endfacet
  facet normal 0.000000e+00 0.000000e+00 1.000000e+00
    outer loop
      vertex 9.625000e+00 -2.500000e-01 -7.500000e-01
      vertex 9.916667e+00 1.416667e+00 -7.500000e-01
      vertex 9.625000e+00 1.250000e+00 -7.500000e-01
    endloop
  endfacet
  facet normal 0.000000e+00 0.000000e+00 1.000000e+00
    outer loop
      vertex 9.625000e+00 -2.500000e-01 -7.500000e-01
      vertex 9.916667e+00 -8.333333e-02 -7.500000e-01
      vertex 9.916667e+00 1.416667e+00 -7.500000e-01
    endloop
  endfacet
  facet normal 0.000000e+00 0.000000e+00 -1.000000e+00
    outer loop
      vertex 9.625000e+00 -2.500000e-01 7.500000e-01
      vertex 9.625000e+00 1.250000e+00 7.500000e-01
      vertex 9.916667e+00 1.416667e+00 7.500000e-01
    endloop
  endfacet
  facet normal 0.000000e+00 0.000000e+00 -1.000000e+00
    outer loop
      vertex 9.625000e+00 -2.500000e-01 7.500000e-01
      vertex 9.916667e+00 1.416667e+00 7.500000e-01
      vertex 9.916667e+00 -8.333333e-02 7.500000e-01
    endloop
  endfacet
  facet normal -4.961389e-01 8.682431e-01 0.000000e+00
    outer loop
      vertex 9.916667e+00 -8.333333e-02 -7.500000e-01
      vertex 9.916667e+00 -8.333333e-02 7.500000e-01
      vertex 1.020833e+01 8.333333e-02 7.500000e-01
    endloop
  endfacet
  facet normal -4.961389e-01 8.682431e-01 0.000000e+00
    outer loop
      vertex 9.916667e+00 -8.333333e-02 -7.500000e-01
      vertex 1.020833e+01 8.333333e-02 7.500000e-01
      vertex 1.020833e+01 8.333333e-02 -7.500000e-01
    endloop
  endfacet
  facet normal 4.961389e-01 -8.682431e-01 0.000000e+00
    outer loop
      vertex 9.916667e+00 1.416667e+00 -7.500000e-01
      vertex 1.020833e+01 1.583333e+00 7.500000e-01
      vertex 9.916667e+00 1.416667e+00 7.500000e-01
    endloop
  endfacet
  facet normal 4.961389e-01 -8.682431e-01 0.000000e+00
    outer loop
      vertex 9.916667e+00 1.416667e+00 -7.500000e-01
      vertex 1.020833e+01 1.583333e+00 -7.500000e-01
      vertex 1.020833e+01 1.583333e+00 7.500000e-01
    endloop
  endfacet
  facet normal 0.000000e+00 0.000000e+00 1.000000e+00
    outer loop
      vertex 9.916667e+00 -8.333333e-02 -7.500000e-01
      vertex 1.020833e+01 1.583333e+00 -7.500000e-01
      vertex 9.916667e+00 1.416667e+00 -7.500000e-01
    endloop
  endfacet
  facet normal 0.000000e+00 0.000000e+00 1.000000e+00
    outer loop
      vertex 9.916667e+00 -8.333333e-02 -7.500000e-01
      vertex 1.020833e+01 8.333333e-02 -7.500000e-01
      vertex 1.020833e+01 1.583333e+00 -7.500000e-01
    endloop
  endfacet
  facet normal 0.000000e+00 0.000000e+00 -1.000000e+00
    outer loop
      vertex 9.916667e+00 -8.333333e-02 7.500000e-01
      vertex 9.916667e+00 1.416667e+00 7.500000e-01
      vertex 1.020833e+01 1.583333e+00 7.500000e-01
    endloop
  endfacet
  facet normal 0.000000e+00 0.000000e+00 -1.000000e+00
    outer loop
      vertex 9.916667e+00 -8.333333e-02 7.500000e-01
      vertex 1.020833e+01 1.583333e+00 7.500000e-01
      vertex 1.020833e+01 8.333333e-02 7.500000e-01
    endloop
  endfacet
  facet normal -4.961389e-01 8.682431e-01 0.000000e+00
    outer loop
      vertex 1.020833e+01 8.333333e-02 -7.500000e-01
      vertex 1.020833e+01 8.333333e-02 7.500000e-01
      vertex 1.050000e+01 2.500000e-01 7.500000e-01
    endloop
  endfacet
  facet normal -4.961389e-01 8.682431e-01 0.000000e+00
    outer loop
      vertex 1.020833e+01 8.333333e-02 -7.500000e-01
      vertex 1.050000e+01 2.500000e-01 7.500000e-01
      vertex 1.050000e+01 2.500000e-01 -7.500000e-01
    endloop
  endfacet
  facet normal 4.961389e-01 -8.682431e-01 0.000000e+00
    outer loop
      vertex 1.020833e+01 1.583333e+00 -7.500000e-01
      vertex 1.050000e+01 1.750000e+00 7.500000e-01
      vertex 1.020833e+01 1.583333e+00 7.500000e-01
    endloop
  endfacet
  facet normal 4.961389e-01 -8.682431e-01 0.000000e+00
    outer loop
      vertex 1.020833e+01 1.583333e+00 -7.500000e-01
      vertex 1.050000e+01 1.750000e+00 -7.500000e-01
      vertex 1.050000e+01 1.750000e+00 7.500000e-01
    endloop
  endfacet
  facet normal 0.000000e+00 0.000000e+00 1.000000e+00
    outer loop
      vertex 1.020833e+01 8.333333e-02 -7.500000e-01
      vertex 1.050000e+01 1.750000e+00 -7.500000e-01
      vertex 1.020833e+01 1.583333e+00 -7.500000e-01
    endloop
  endfacet
  facet normal 0.000000e+00 0.000000e+00 1.000000e+00
    outer loop
      vertex 1.020833e+01 8.333333e-02 -7.500000e-01
      vertex 1.050000e+01 2.500000e-01 -7.500000e-01
      vertex 1.050000e+01 1.750000e+00 -7.500000e-01
    endloop
  endfacet
  facet normal 0.000000e+00 0.000000e+00 -1.000000e+00
    outer loop
      vertex 1.020833e+01 8.333333e-02 7.500000e-01
      vertex 1.020833e+01 1.583333e+00 7.500000e-01
      vertex 1.050000e+01 1.750000e+00 7.500000e-01
    endloop
  endfacet
  facet normal 0.000000e+00 0.000000e+00 -1.000000e+00
    outer loop
      vertex 1.020833e+01 8.333333e-02 7.500000e-01
      vertex 1.050000e+01 1.750000e+00 7.500000e-01
      vertex 1.050000e+01 2.500000e-01 7.500000e-01
    endloop
  endfacet
  facet normal 4.961389e-01 8.682431e-01 -0.000000e+00
    outer loop
      vertex 1.050000e+01 2.500000e-01 -7.500000e-01
      vertex 1.050000e+01 2.500000e-01 7.500000e-01
      vertex 1.079167e+01 8.333333e-02 7.500000e-01
    endloop
  endfacet
  facet normal 4.961389e-01 8.682431e-01 0.000000e+00
    outer loop
      vertex 1.050000e+01 2.500000e-01 -7.500000e-01
      vertex 1.079167e+01 8.333333e-02 7.500000e-01
      vertex 1.079167e+01 8.333333e-02 -7.500000e-01
    endloop
  endfacet
  facet normal -4.961389e-01 -8.682431e-01 0.000000e+00
    outer loop
      vertex 1.050000e+01 1.750000e+00 -7.500000e-01
      vertex 1.079167e+01 1.583333e+00 7.500000e-01
      vertex 1.050000e+01 1.750000e+00 7.500000e-01
    endloop
  endfacet
  facet normal -4.961389e-01 -8.682431e-01 0.000000e+00
    outer loop
      vertex 1.050000e+01 1.750000e+00 -7.500000e-01
      vertex 1.079167e+01 1.583333e+00 -7.500000e-01
      vertex 1.079167e+01 1.583333e+00 7.500000e-01
    endloop
  endfacet
  facet normal 0.000000e+00 0.000000e+00 1.000000e+00
    outer loop
      vertex 1.050000e+01 2.500000e-01 -7.500000e-01
      vertex 1.079167e+01 1.583333e+00 -7.500000e-01
      vertex 1.050000e+01 1.750000e+00 -7.500000e-01
    endloop
  endfacet
  facet normal -0.000000e+00 0.000000e+00 1.000000e+00
    outer loop
      vertex 1.050000e+01 2.500000e-01 -7.500000e-01
      vertex 1.079167e+01 8.333333e-02 -7.500000e-01
      vertex 1.079167e+01 1.583333e+00 -7.500000e-01
    endloop
  endfacet
  facet normal 0.000000e+00 0.000000e+00 -1.000000e+00
    outer loop
      vertex 1.050000e+01 2.500000e-01 7.500000e-01
      vertex 1.050000e+01 1.750000e+00 7.500000e-01
      vertex 1.079167e+01 1.583333e+00 7.500000e-01
    endloop
  endfacet
  facet normal 0.000000e+00 0.000000e+00 -1.000000e+00
    outer loop
      vertex 1.050000e+01 2.500000e-01 7.500000e-01
      vertex 1.079167e+01 1.583333e+00 7.500000e-01
      vertex 1.079167e+01 8.333333e-02 7.500000e-01
    endloop
  endfacet
  facet normal 4.961389e-01 8.682431e-01 -0.000000e+00
    outer loop
      vertex 1.079167e+01 8.333333e-02 -7.500000e-01
      vertex 1.079167e+01 8.333333e-02 7.500000e-01
      vertex 1.108333e+01 -8.333333e-02 7.500000e-01
    endloop
  endfacet
  facet normal 4.961389e-01 8.682431e-01 0.000000e+00
    outer loop
      vertex 1.079167e+01 8.333333e-02 -7.500000e-01
      vertex 1.108333e+01 -8.333333e-02 7.500000e-01
      vertex 1.108333e+01 -8.333333e-02 -7.500000e-01
    endloop
  endfacet
  facet normal -4.961389e-01 -8.682431e-01 0.000000e+00
    outer loop
      vertex 1.079167e+01 1.583333e+00 -7.500000e-01
      vertex 1.108333e+01 1.416667e+00 7.500000e-01
      vertex 1.079167e+01 1.583333e+00 7.500000e-01
    endloop
  endfacet
  facet normal -4.961389e-01 -8.682431e-01 0.000000e+00
    outer loop
      vertex 1.079167e+01 1.583333e+00 -7.500000e-01
      vertex 1.108333e+01 1.416667e+00 -7.500000e-01
      vertex 1.108333e+01 1.416667e+00 7.500000e-01
    endloop
  endfacet
  facet normal 0.000000e+00 0.000000e+00 1.000000e+00
    outer loop
      vertex 1.079167e+01 8.333333e-02 -7.500000e-01
      vertex 1.108333e+01 1.416667e+00 -7.500000e-01
      vertex 1.079167e+01 1.583333e+00 -7.500000e-01
    endloop
  endfacet
  facet normal -0.000000e+00 0.000000e+00 1.000000e+00
    outer loop
      vertex 1.079167e+01 8.333333e-02 -7.500000e-01
      vertex 1.108333e+01 -8.333333e-02 -7.500000e-01
      vertex 1.108333e+01 1.416667e+00 -7.500000e-01
    endloop
  endfacet
  facet normal 0.000000e+00 0.000000e+00 -1.000000e+00
    outer loop
      vertex 1.079167e+01 8.333333e-02 7.500000e-01
      vertex 1.079167e+01 1.583333e+00 7.500000e-01
      vertex 1.108333e+01 1.416667e+00 7.500000e-01
    endloop
  endfacet
  facet normal 0.000000e+00 0.000000e+00 -1.000000e+00
    outer loop
      vertex 1.079167e+01 8.333333e-02 7.500000e-01
      vertex 1.108333e+01 1.416667e+00 7.500000e-01
      vertex 1.108333e+01 -8.333333e-02 7.500000e-01
    endloop
  endfacet
  facet normal 4.961389e-01 8.682431e-01 -0.000000e+00
    outer loop
      vertex 1.108333e+01 -8.333333e-02 -7.500000e-01
      vertex 1.108333e+01 -8.333333e-02 7.500000e-01
      vertex 1.137500e+01 -2.500000e-01 7.500000e-01
    endloop
  endfacet
  facet normal 4.961389e-01 8.682431e-01 0.000000e+00
    outer loop
      vertex 1.108333e+01 -8.333333e-02 -7.500000e-01
      vertex 1.137500e+01 -2.500000e-01 7.500000e-01
      vertex 1.137500e+01 -2.500000e-01 -7.500000e-01
    endloop
  endfacet
  facet normal -4.961389e-01 -8.682431e-01 0.000000e+00
    outer loop
      vertex 1.108333e+01 1.416667e+00 -7.500000e-01
      vertex 1.137500e+01 1.250000e+00 7.500000e-01
      vertex 1.108333e+01 1.416667e+00 7.500000e-01
    endloop
  endfacet
  facet normal -4.961389e-01 -8.682431e-01 0.000000e+00
    outer loop
      vertex 1.108333e+01 1.416667e+00 -7.500000e-01
      vertex 1.137500e+01 1.250000e+00 -7.500000e-01
      vertex 1.137500e+01 1.250000e+00 7.500000e-01
    endloop
  endfacet
  facet normal 0.000000e+00 0.000000e+00 1.000000e+00
    outer loop
      vertex 1.108333e+01 -8.333333e-02 -7.500000e-01
      vertex 1.137500e+01 1.250000e+00 -7.500000e-01
      vertex 1.108333e+01 1.416667e+00 -7.500000e-01
    endloop
  endfacet
  facet normal -0.000000e+00 0.000000e+00 1.000000e+00
    outer loop
      vertex 1.108333e+01 -8.333333e-02 -7.500000e-01
      vertex 1.137500e+01 -2.500000e-01 -7.500000e-01
      vertex 1.137500e+01 1.250000e+00 -7.500000e-01
    endloop
  endfacet
  facet normal 0.000000e+00 0.000000e+00 -1.000000e+00
    outer loop
      vertex 1.108333e+01 -8.333333e-02 7.500000e-01
      vertex 1.108333e+01 1.416667e+00 7.500000e-01
      vertex 1.137500e+01 1.250000e+00 7.500000e-01
    endloop
  endfacet
  facet normal 0.000000e+00 0.000000e+00 -1.000000e+00
    outer loop
      vertex 1.108333e+01 -8.333333e-02 7.500000e-01
      vertex 1.137500e+01 1.250000e+00 7.500000e-01
      vertex 1.137500e+01 -2.500000e-01 7.500000e-01
    endloop
  endfacet
  facet normal 4.961389e-01 8.682431e-01 -0.000000e+00
    outer loop
      vertex 1.137500e+01 -2.500000e-01 -7.500000e-01
      vertex 1.137500e+01 -2.500000e-01 7.500000e-01
      vertex 1.166667e+01 -4.166667e-01 7.500000e-01
    endloop
  endfacet
  facet normal 4.961389e-01 8.682431e-01 0.000000e+00
    outer loop
      vertex 1.137500e+01 -2.500000e-01 -7.500000e-01
      vertex 1.166667e+01 -4.166667e-01 7.500000e-01
      vertex 1.166667e+01 -4.166667e-01 -7.500000e-01
    endloop
  endfacet
  facet normal -4.961389e-01 -8.682431e-01 0.000000e+00
    outer loop
      vertex 1.137500e+01 1.250000e+00 -7.500000e-01
      vertex 1.166667e+01 1.083333e+00 7.500000e-01
      vertex 1.137500e+01 1.250000e+00 7.500000e-01
    endloop
  endfacet
  facet normal -4.961389e-01 -8.682431e-01 0.000000e+00
    outer loop
      vertex 1.137500e+01 1.250000e+00 -7.500000e-01
      vertex 1.166667e+01 1.083333e+00 -7.500000e-01
      vertex 1.166667e+01 1.083333e+00 7.500000e-01
    endloop
  endfacet
  facet normal 0.000000e+00 0.000000e+00 1.000000e+00
    outer loop
      vertex 1.137500e+01 -2.500000e-01 -7.500000e-01
      vertex 1.166667e+01 1.083333e+00 -7.500000e-01
      vertex 1.137500e+01 1.250000e+00 -7.500000e-01
    endloop
  endfacet
  facet normal -0.000000e+00 0.000000e+00 1.000000e+00
    outer loop
      vertex 1.137500e+01 -2.500000e-01 -7.500000e-01
      vertex 1.166667e+01 -4.166667e-01 -7.500000e-01
      vertex 1.166667e+01 1.083333e+00 -7.500000e-01
    endloop
  endfacet
  facet normal 0.000000e+00 0.000000e+00 -1.000000e+00
    outer loop
      vertex 1.137500e+01 -2.500000e-01 7.500000e-01
      vertex 1.137500e+01 1.250000e+00 7.500000e-01
      vertex 1.166667e+01 1.083333e+00 7.500000e-01
    endloop
  endfacet
  facet normal 0.000000e+00 0.000000e+00 -1.000000e+00
    outer loop
      vertex 1.137500e+01 -2.500000e-01 7.500000e-01
      vertex 1.166667e+01 1.083333e+00 7.500000e-01
      vertex 1.166667e+01 -4.166667e-01 7.500000e-01
    endloop
  endfacet
  facet normal 4.961389e-01 8.682431e-01 -0.000000e+00
    outer loop
      vertex 1.166667e+01 -4.166667e-01 -7.500000e-01
      vertex 1.166667e+01 -4.166667e-01 7.500000e-01
      vertex 1.195833e+01 -5.833333e-01 7.500000e-01
    endloop
  endfacet
  facet normal 4.961389e-01 8.682431e-01 0.000000e+00
    outer loop
      vertex 1.166667e+01 -4.166667e-01 -7.500000e-01
      vertex 1.195833e+01 -5.833333e-01 7.500000e-01
      vertex 1.195833e+01 -5.833333e-01 -7.500000e-01
    endloop
  endfacet
  facet normal -4.961389e-01 -8.682431e-01 0.000000e+00
    outer loop
      vertex 1.166667e+01 1.083333e+00 -7.500000e-01
      vertex 1.195833e+01 9.166667e-01 7.500000e-01
      vertex 1.166667e+01 1.083333e+00 7.500000e-01
    endloop
  endfacet
  facet normal -4.961389e-01 -8.682431e-01 0.000000e+00
    outer loop
      vertex 1.166667e+01 1.083333e+00 -7.500000e-01
      vertex 1.195833e+01 9.166667e-01 -7.500000e-01
      vertex 1.195833e+01 9.166667e-01 7.500000e-01
    endloop
  endfacet
  facet normal 0.000000e+00 0.000000e+00 1.000000e+00
    outer loop
      vertex 1.166667e+01 -4.166667e-01 -7.500000e-01
      vertex 1.195833e+01 9.166667e-01 -7.500000e-01
      vertex 1.166667e+01 1.083333e+00 -7.500000e-01
    endloop
  endfacet
  facet normal -0.000000e+00 0.000000e+00 1.000000e+00
    outer loop
      vertex 1.166667e+01 -4.166667e-01 -7.500000e-01
      vertex 1.195833e+01 -5.833333e-01 -7.500000e-01
      vertex 1.195833e+01 9.166667e-01 -7.500000e-01
    endloop
  endfacet
  facet normal 0.000000e+00 0.000000e+00 -1.000000e+00
    outer loop
      vertex 1.166667e+01 -4.166667e-01 7.500000e-01
      vertex 1.166667e+01 1.083333e+00 7.500000e-01
      vertex 1.195833e+01 9.166667e-01 7.500000e-01
    endloop
  endfacet
  facet normal 0.000000e+00 0.000000e+00 -1.000000e+00
    outer loop
      vertex 1.166667e+01 -4.166667e-01 7.500000e-01
      vertex 1.195833e+01 9.166667e-01 7.500000e-01
      vertex 1.195833e+01 -5.833333e-01 7.500000e-01
    endloop
  endfacet
  facet normal 4.961389e-01 8.682431e-01 -0.000000e+00
    outer loop
      vertex 1.195833e+01 -5.833333e-01 -7.500000e-01
      vertex 1.195833e+01 -5.833333e-01 7.500000e-01
      vertex 1.225000e+01 -7.500000e-01 7.500000e-01
    endloop
  endfacet
  facet normal 4.961389e-01 8.682431e-01 0.000000e+00
    outer loop
      vertex 1.195833e+01 -5.833333e-01 -7.500000e-01
      vertex 1.225000e+01 -7.500000e-01 7.500000e-01
      vertex 1.225000e+01 -7.500000e-01 -7.500000e-01
    endloop
  endfacet
  facet normal -4.961389e-01 -8.682431e-01 0.000000e+00
    outer loop
      vertex 1.195833e+01 9.166667e-01 -7.500000e-01
      vertex 1.225000e+01 7.500000e-01 7.500000e-01
      vertex 1.195833e+01 9.166667e-01 7.500000e-01
    endloop
  endfacet
  facet normal -4.961389e-01 -8.682431e-01 0.000000e+00
    outer loop
      vertex 1.195833e+01 9.166667e-01 -7.500000e-01
      vertex 1.225000e+01 7.500000e-01 -7.500000e-01
      vertex 1.225000e+01 7.500000e-01 7.500000e-01
    endloop
  endfacet
  facet normal 0.000000e+00 0.000000e+00 1.000000e+00
    outer loop
      vertex 1.195833e+01 -5.833333e-01 -7.500000e-01
      vertex 1.225000e+01 7.500000e-01 -7.500000e-01
      vertex 1.195833e+01 9.166667e-01 -7.500000e-01
    endloop
  endfacet
  facet normal -0.000000e+00 0.000000e+00 1.000000e+00
    outer loop
      vertex 1.195833e+01 -5.833333e-01 -7.500000e-01
      vertex 1.225000e+01 -7.500000e-01 -7.500000e-01
      vertex 1.225000e+01 7.500000e-01 -7.500000e-01
    endloop
  endfacet
  facet normal 0.000000e+00 0.000000e+00 -1.000000e+00
    outer loop
      vertex 1.195833e+01 -5.833333e-01 7.500000e-01
      vertex 1.195833e+01 9.166667e-01 7.500000e-01
      vertex 1.225000e+01 7.500000e-01 7.500000e-01
    endloop
  endfacet
  facet normal 0.000000e+00 0.000000e+00 -1.000000e+00
    outer loop
      vertex 1.195833e+01 -5.833333e-01 7.500000e-01
      vertex 1.225000e+01 7.500000e-01 7.500000e-01
      vertex 1.225000e+01 -7.500000e-01 7.500000e-01
    endloop
  endfacet
  facet normal 4.961389e-01 8.682431e-01 -0.000000e+00
    outer loop
      vertex 1.225000e+01 -7.500000e-01 -7.500000e-01
      vertex 1.225000e+01 -7.500000e-01 7.500000e-01
      vertex 1.254167e+01 -9.166667e-01 7.500000e-01
    endloop
  endfacet
  facet normal 4.961389e-01 8.682431e-01 0.000000e+00
    outer loop
      vertex 1.225000e+01 -7.500000e-01 -7.500000e-01
      vertex 1.254167e+01 -9.166667e-01 7.500000e-01
      vertex 1.254167e+01 -9.166667e-01 -7.500000e-01
    endloop
  endfacet
  facet normal -4.961389e-01 -8.682431e-01 0.000000e+00
    outer loop
      vertex 1.225000e+01 7.500000e-01 -7.500000e-01
      vertex 1.254167e+01 5.833333e-01 7.500000e-01
      vertex 1.225000e+01 7.500000e-01 7.500000e-01
    endloop
  endfacet
  facet normal -4.961389e-01 -8.682431e-01 0.000000e+00
    outer loop
      vertex 1.225000e+01 7.500000e-01 -7.500000e-01
      vertex 1.254167e+01 5.833333e-01 -7.500000e-01
      vertex 1.254167e+01 5.833333e-01 7.500000e-01
    endloop
  endfacet
  facet normal 0.000000e+00 0.000000e+00 1.000000e+00
    outer loop
      vertex 1.225000e+01 -7.500000e-01 -7.500000e-01
      vertex 1.254167e+01 5.833333e-01 -7.500000e-01
      vertex 1.225000e+01 7.500000e-01 -7.500000e-01
    endloop
  endfacet
  facet normal -0.000000e+00 0.000000e+00 1.000000e+00
    outer loop
      vertex 1.225000e+01 -7.500000e-01 -7.500000e-01
      vertex 1.254167e+01 -9.166667e-01 -7.500000e-01
      vertex 1.254167e+01 5.833333e-01 -7.500000e-01
    endloop
  endfacet
  facet normal 0.000000e+00 0.000000e+00 -1.000000e+00
    outer loop
      vertex 1.225000e+01 -7.500000e-01 7.500000e-01
      vertex 1.225000e+01 7.500000e-01 7.500000e-01
      vertex 1.254167e+01 5.833333e-01 7.500000e-01
    endloop
  endfacet
  facet normal 0.000000e+00 0.000000e+00 -1.000000e+00
    outer loop
      vertex 1.225000e+01 -7.500000e-01 7.500000e-01
      vertex 1.254167e+01 5.833333e-01 7.500000e-01
      vertex 1.254167e+01 -9.166667e-01 7.500000e-01
    endloop
  endfacet
  facet normal 4.961389e-01 8.682431e-01 -0.000000e+00
    outer loop
      vertex 1.254167e+01 -9.166667e-01 -7.500000e-01
      vertex 1.254167e+01 -9.166667e-01 7.500000e-01
      vertex 1.283333e+01 -1.083333e+00 7.500000e-01
    endloop
  endfacet
  facet normal 4.961389e-01 8.682431e-01 0.000000e+00
    outer loop
      vertex 1.254167e+01 -9.166667e-01 -7.500000e-01
      vertex 1.283333e+01 -1.083333e+00 7.500000e-01
      vertex 1.283333e+01 -1.083333e+00 -7.500000e-01
    endloop
  endfacet
  facet normal -4.961389e-01 -8.682431e-01 0.000000e+00
    outer loop
      vertex 1.254167e+01 5.833333e-01 -7.500000e-01
      vertex 1.283333e+01 4.166667e-01 7.500000e-01
      vertex 1.254167e+01 5.833333e-01 7.500000e-01
    endloop
  endfacet
  facet normal -4.961389e-01 -8.682431e-01 0.000000e+00
    outer loop
      vertex 1.254167e+01 5.833333e-01 -7.500000e-01
      vertex 1.283333e+01 4.166667e-01 -7.500000e-01
      vertex 1.283333e+01 4.166667e-01 7.500000e-01
    endloop
  endfacet
  facet normal 0.000000e+00 0.000000e+00 1.000000e+00
    outer loop
      vertex 1.254167e+01 -9.166667e-01 -7.500000e-01
      vertex 1.283333e+01 4.166667e-01 -7.500000e-01
      vertex 1.254167e+01 5.833333e-01 -7.500000e-01
    endloop
  endfacet
  facet normal -0.000000e+00 0.000000e+00 1.000000e+00
    outer loop
      vertex 1.254167e+01 -9.166667e-01 -7.500000e-01
      vertex 1.283333e+01 -1.083333e+00 -7.500000e-01
      vertex 1.283333e+01 4.166667e-01 -7.500000e-01
    endloop
  endfacet
  facet normal 0.000000e+00 0.000000e+00 -1.000000e+00
    outer loop
      vertex 1.254167e+01 -9.166667e-01 7.500000e-01
      vertex 1.254167e+01 5.833333e-01 7.500000e-01
      vertex 1.283333e+01 4.166667e-01 7.500000e-01
    endloop
  endfacet
  facet normal 0.000000e+00 0.000000e+00 -1.000000e+00
    outer loop
      vertex 1.254167e+01 -9.166667e-01 7.500000e-01
      vertex 1.283333e+01 4.166667e-01 7.500000e-01
      vertex 1.283333e+01 -1.083333e+00 7.500000e-01
    endloop
  endfacet
  facet normal 4.961389e-01 8.682431e-01 -0.000000e+00
    outer loop
      vertex 1.283333e+01 -1.083333e+00 -7.500000e-01
      vertex 1.283333e+01 -1.083333e+00 7.500000e-01
      vertex 1.312500e+01 -1.250000e+00 7.500000e-01
    endloop
  endfacet
  facet normal 4.961389e-01 8.682431e-01 0.000000e+00
    outer loop
      vertex 1.283333e+01 -1.083333e+00 -7.500000e-01
      vertex 1.312500e+01 -1.250000e+00 7.500000e-01
      vertex 1.312500e+01 -1.250000e+00 -7.500000e-01
    endloop
  endfacet
  facet normal -4.961389e-01 -8.682431e-01 0.000000e+00
    outer loop
      vertex 1.283333e+01 4.166667e-01 -7.500000e-01
      vertex 1.312500e+01 2.500000e-01 7.500000e-01
      vertex 1.283333e+01 4.166667e-01 7.500000e-01
    endloop
  endfacet
  facet normal -4.961389e-01 -8.682431e-01 0.000000e+00
    outer loop
      vertex 1.283333e+01 4.166667e-01 -7.500000e-01
      vertex 1.312500e+01 2.500000e-01 -7.500000e-01
      vertex 1.312500e+01 2.500000e-01 7.500000e-01
    endloop
  endfacet
  facet normal 0.000000e+00 0.000000e+00 1.000000e+00
    outer loop
      vertex 1.283333e+01 -1.083333e+00 -7.500000e-01
      vertex 1.312500e+01 2.500000e-01 -7.500000e-01
      vertex 1.283333e+01 4.166667e-01 -7.500000e-01
    endloop
  endfacet
  facet normal -0.000000e+00 0.000000e+00 1.000000e+00
    outer loop
      vertex 1.283333e+01 -1.083333e+00 -7.500000e-01
      vertex 1.312500e+01 -1.250000e+00 -7.500000e-01
      vertex 1.312500e+01 2.500000e-01 -7.500000e-01
    endloop
  endfacet
  facet normal 0.000000e+00 0.000000e+00 -1.000000e+00
    outer loop
      vertex 1.283333e+01 -1.083333e+00 7.500000e-01
      vertex 1.283333e+01 4.166667e-01 7.500000e-01
      vertex 1.312500e+01 2.500000e-01 7.500000e-01
    endloop
  endfacet
  facet normal 0.000000e+00 0.000000e+00 -1.000000e+00
    outer loop
      vertex 1.283333e+01 -1.083333e+00 7.500000e-01
      vertex 1.312500e+01 2.500000e-01 7.500000e-01
      vertex 1.312500e+01 -1.250000e+00 7.500000e-01
    endloop
  endfacet
  facet normal 4.961389e-01 8.682431e-01 -0.000000e+00
    outer loop
      vertex 1.312500e+01 -1.250000e+00 -7.500000e-01
      vertex 1.312500e+01 -1.250000e+00 7.500000e-01
      vertex 1.341667e+01 -1.416667e+00 7.500000e-01
    endloop
  endfacet
  facet normal 4.961389e-01 8.682431e-01 0.000000e+00
    outer loop
      vertex 1.312500e+01 -1.250000e+00 -7.500000e-01
      vertex 1.341667e+01 -1.416667e+00 7.500000e-01
      vertex 1.341667e+01 -1.416667e+00 -7.500000e-01
    endloop
  endfacet
  facet normal -4.961389e-01 -8.682431e-01 0.000000e+00
    outer loop
      vertex 1.312500e+01 2.500000e-01 -7.500000e-01
      vertex 1.341667e+01 8.333333e-02 7.500000e-01
      vertex 1.312500e+01 2.500000e-01 7.500000e-01
    endloop
  endfacet
  facet normal -4.961389e-01 -8.682431e-01 0.000000e+00
    outer loop
      vertex 1.312500e+01 2.500000e-01 -7.500000e-01
      vertex 1.341667e+01 8.333333e-02 -7.500000e-01
      vertex 1.341667e+01 8.333333e-02 7.500000e-01
    endloop
  endfacet
  facet normal 0.000000e+00 0.000000e+00 1.000000e+00
    outer loop
      vertex 1.312500e+01 -1.250000e+00 -7.500000e-01
      vertex 1.341667e+01 8.333333e-02 -7.500000e-01
      vertex 1.312500e+01 2.500000e-01 -7.500000e-01
    endloop
  endfacet
  facet normal -0.000000e+00 0.000000e+00 1.000000e+00
    outer loop
      vertex 1.312500e+01 -1.250000e+00 -7.500000e-01
      vertex 1.341667e+01 -1.416667e+00 -7.500000e-01
      vertex 1.341667e+01 8.333333e-02 -7.500000e-01
    endloop
  endfacet
  facet normal 0.000000e+00 0.000000e+00 -1.000000e+00
    outer loop
      vertex 1.312500e+01 -1.250000e+00 7.500000e-01
      vertex 1.312500e+01 2.500000e-01 7.500000e-01
      vertex 1.341667e+01 8.333333e-02 7.500000e-01
    endloop
  endfacet
  facet normal 0.000000e+00 0.000000e+00 -1.000000e+00
    outer loop
      vertex 1.312500e+01 -1.250000e+00 7.500000e-01
      vertex 1.341667e+01 8.333333e-02 7.500000e-01
      vertex 1.341667e+01 -1.416667e+00 7.500000e-01
    endloop
  endfacet
  facet normal 4.961389e-01 8.682431e-01 -0.000000e+00
    outer loop
      vertex 1.341667e+01 -1.416667e+00 -7.500000e-01
      vertex 1.341667e+01 -1.416667e+00 7.500000e-01
      vertex 1.370833e+01 -1.583333e+00 7.500000e-01
    endloop
  endfacet
  facet normal 4.961389e-01 8.682431e-01 0.000000e+00
    outer loop
      vertex 1.341667e+01 -1.416667e+00 -7.500000e-01
      vertex 1.370833e+01 -1.583333e+00 7.500000e-01
      vertex 1.370833e+01 -1.583333e+00 -7.500000e-01
    endloop
  endfacet
  facet normal -4.961389e-01 -8.682431e-01 0.000000e+00
    outer loop
      vertex 1.341667e+01 8.333333e-02 -7.500000e-01
      vertex 1.370833e+01 -8.333333e-02 7.500000e-01
      vertex 1.341667e+01 8.333333e-02 7.500000e-01
    endloop
  endfacet
  facet normal -4.961389e-01 -8.682431e-01 0.000000e+00
    outer loop
      vertex 1.341667e+01 8.333333e-02 -7.500000e-01
      vertex 1.370833e+01 -8.333333e-02 -7.500000e-01
      vertex 1.370833e+01 -8.333333e-02 7.500000e-01
    endloop
  endfacet
  facet normal 0.000000e+00 0.000000e+00 1.000000e+00
    outer loop
      vertex 1.341667e+01 -1.416667e+00 -7.500000e-01
      vertex 1.370833e+01 -8.333333e-02 -7.500000e-01
      vertex 1.341667e+01 8.333333e-02 -7.500000e-01
    endloop
  endfacet
  facet normal -0.000000e+00 0.000000e+00 1.000000e+00
    outer loop
      vertex 1.341667e+01 -1.416667e+00 -7.500000e-01
      vertex 1.370833e+01 -1.583333e+00 -7.500000e-01
      vertex 1.370833e+01 -8.333333e-02 -7.500000e-01
    endloop
  endfacet
  facet normal 0.000000e+00 0.000000e+00 -1.000000e+00
    outer loop
      vertex 1.341667e+01 -1.416667e+00 7.500000e-01
      vertex 1.341667e+01 8.333333e-02 7.500000e-01
      vertex 1.370833e+01 -8.333333e-02 7.500000e-01
    endloop
  endfacet
  facet normal 0.000000e+00 0.000000e+00 -1.000000e+00
    outer loop
      vertex 1.341667e+01 -1.416667e+00 7.500000e-01
      vertex 1.370833e+01 -8.333333e-02 7.500000e-01
      vertex 1.370833e+01 -1.583333e+00 7.500000e-01
    endloop
  endfacet
  facet normal 4.961389e-01 8.682431e-01 -0.000000e+00
    outer loop
      vertex 1.370833e+01 -1.583333e+00 -7.500000e-01
      vertex 1.370833e+01 -1.583333e+00 7.500000e-01
      vertex 1.400000e+01 -1.750000e+00 7.500000e-01
    endloop
  endfacet
  facet normal 4.961389e-01 8.682431e-01 0.000000e+00
    outer loop
      vertex 1.370833e+01 -1.583333e+00 -7.500000e-01
      vertex 1.400000e+01 -1.750000e+00 7.500000e-01
      vertex 1.400000e+01 -1.750000e+00 -7.500000e-01
    endloop
  endfacet
  facet normal -4.961389e-01 -8.682431e-01 0.000000e+00
    outer loop
      vertex 1.370833e+01 -8.333333e-02 -7.500000e-01
      vertex 1.400000e+01 -2.500000e-01 7.500000e-01
      vertex 1.370833e+01 -8.333333e-02 7.500000e-01
    endloop
  endfacet
  facet normal -4.961389e-01 -8.682431e-01 0.000000e+00
    outer loop
      vertex 1.370833e+01 -8.333333e-02 -7.500000e-01
      vertex 1.400000e+01 -2.500000e-01 -7.500000e-01
      vertex 1.400000e+01 -2.500000e-01 7.500000e-01
    endloop
  endfacet
  facet normal 0.000000e+00 0.000000e+00 1.000000e+00
    outer loop
      vertex 1.370833e+01 -1.583333e+00 -7.500000e-01
      vertex 1.400000e+01 -2.500000e-01 -7.500000e-01
      vertex 1.370833e+01 -8.333333e-02 -7.500000e-01
    endloop
  endfacet
  facet normal -0.000000e+00 0.000000e+00 1.000000e+00
    outer loop
      vertex 1.370833e+01 -1.583333e+00 -7.500000e-01
      vertex 1.400000e+01 -1.750000e+00 -7.500000e-01
      vertex 1.400000e+01 -2.500000e-01 -7.500000e-01
    endloop
  endfacet
  facet normal 0.000000e+00 0.000000e+00 -1.000000e+00
    outer loop
      vertex 1.370833e+01 -1.583333e+00 7.500000e-01
      vertex 1.370833e+01 -8.333333e-02 7.500000e-01
      vertex 1.400000e+01 -2.500000e-01 7.500000e-01
    endloop
  endfacet
  facet normal 0.000000e+00 0.000000e+00 -1.000000e+00
    outer loop
      vertex 1.370833e+01 -1.583333e+00 7.500000e-01
      vertex 1.400000e+01 -2.500000e-01 7.500000e-01
      vertex 1.400000e+01 -1.750000e+00 7.500000e-01
    endloop
  endfacet
endsolid zigzag_wall
